solid 本體元件
facet normal 0.0 0.0 -1.0
  outer loop
    vertex 76.27590634263109 117.39566987200794 4.511946372076636e-14
    vertex 36.37590634263108 33.15566987200793 4.511946372076636e-14
    vertex 36.37590634263108 96.59566987200793 4.511946372076636e-14
  endloop
endfacet
facet normal 0.0 0.0 -1.0
  outer loop
    vertex 36.37590634263108 33.15566987200793 4.511946372076636e-14
    vertex 76.27590634263109 117.39566987200794 4.511946372076636e-14
    vertex 76.27590634263109 20.675669872007926 4.511946372076636e-14
  endloop
endfacet
facet normal -0.9999999999999999 0.0 0.0
  outer loop
    vertex 36.37590634263108 96.59566987200793 71.00000000000006
    vertex 36.37590634263108 33.15566987200793 4.511946372076636e-14
    vertex 36.37590634263108 33.15566987200793 71.00000000000006
  endloop
endfacet
facet normal -0.9999999999999999 0.0 0.0
  outer loop
    vertex 36.37590634263108 33.15566987200793 4.511946372076636e-14
    vertex 36.37590634263108 96.59566987200793 71.00000000000006
    vertex 36.37590634263108 96.59566987200793 4.511946372076636e-14
  endloop
endfacet
facet normal 0.9999999999999999 0.0 0.0
  outer loop
    vertex 76.27590634263109 20.675669872007926 4.511946372076636e-14
    vertex 76.27590634263109 23.3797106880264 3.0000000000000453
    vertex 76.27590634263109 20.675669872007926 71.00000000000006
  endloop
endfacet
facet normal 0.9999999999999999 0.0 0.0
  outer loop
    vertex 76.27590634263109 23.3797106880264 3.0000000000000453
    vertex 76.27590634263109 20.675669872007926 4.511946372076636e-14
    vertex 76.27590634263109 117.39566987200794 4.511946372076636e-14
  endloop
endfacet
facet normal 0.9999999999999999 0.0 0.0
  outer loop
    vertex 76.27590634263109 23.3797106880264 3.0000000000000453
    vertex 76.27590634263109 117.39566987200794 4.511946372076636e-14
    vertex 76.27590634263109 114.51593380448473 3.0000000000000453
  endloop
endfacet
facet normal 0.9999999999999999 0.0 0.0
  outer loop
    vertex 76.27590634263109 114.51593380448473 3.0000000000000453
    vertex 76.27590634263109 117.39566987200794 4.511946372076636e-14
    vertex 76.27590634263109 114.51593380448473 71.00000000000006
  endloop
endfacet
facet normal 0.9999999999999999 0.0 0.0
  outer loop
    vertex 76.27590634263109 114.51593380448473 71.00000000000006
    vertex 76.27590634263109 117.39566987200794 4.511946372076636e-14
    vertex 76.27590634263109 117.39566987200794 71.00000000000006
  endloop
endfacet
facet normal 0.9999999999999999 0.0 0.0
  outer loop
    vertex 76.27590634263109 23.3797106880264 71.00000000000006
    vertex 76.27590634263109 20.675669872007926 71.00000000000006
    vertex 76.27590634263109 23.3797106880264 3.0000000000000453
  endloop
endfacet
facet normal -0.25253010595397524 -0.9675890375499685 -0.0
  outer loop
    vertex 76.27590634263109 20.675669872007926 71.00000000000006
    vertex 36.37590634263108 33.15566987200793 4.511946372076636e-14
    vertex 76.27590634263109 20.675669872007926 4.511946372076636e-14
  endloop
endfacet
facet normal -0.25253010595397524 -0.9675890375499685 -0.0
  outer loop
    vertex 36.37590634263108 33.15566987200793 4.511946372076636e-14
    vertex 76.27590634263109 20.675669872007926 71.00000000000006
    vertex 36.37590634263108 33.15566987200793 71.00000000000006
  endloop
endfacet
facet normal -0.39887963660482456 0.9170032908894074 0.0
  outer loop
    vertex 36.37590634263108 96.59566987200793 71.00000000000006
    vertex 76.27590634263109 117.39566987200794 4.511946372076636e-14
    vertex 36.37590634263108 96.59566987200793 4.511946372076636e-14
  endloop
endfacet
facet normal -0.39887963660482456 0.9170032908894074 0.0
  outer loop
    vertex 76.27590634263109 117.39566987200794 4.511946372076636e-14
    vertex 36.37590634263108 96.59566987200793 71.00000000000006
    vertex 76.27590634263109 117.39566987200794 71.00000000000006
  endloop
endfacet
facet normal 0.39887963660482467 -0.9170032908894074 0.0
  outer loop
    vertex 76.27590634263109 114.51593380448473 71.00000000000006
    vertex 38.750906342631076 94.95402904257993 3.0000000000000453
    vertex 76.27590634263109 114.51593380448473 3.0000000000000453
  endloop
endfacet
facet normal 0.39887963660482467 -0.9170032908894074 0.0
  outer loop
    vertex 38.750906342631076 94.95402904257993 3.0000000000000453
    vertex 76.27590634263109 114.51593380448473 71.00000000000006
    vertex 38.750906342631076 94.95402904257993 71.00000000000006
  endloop
endfacet
facet normal 0.9999999999999999 0.0 0.0
  outer loop
    vertex 38.750906342631076 94.95402904257993 3.0000000000000453
    vertex 38.750906342631076 35.11685354516926 71.00000000000006
    vertex 38.750906342631076 35.11685354516926 3.0000000000000453
  endloop
endfacet
facet normal 0.9999999999999999 0.0 0.0
  outer loop
    vertex 38.750906342631076 35.11685354516926 71.00000000000006
    vertex 38.750906342631076 94.95402904257993 3.0000000000000453
    vertex 38.750906342631076 94.95402904257993 71.00000000000006
  endloop
endfacet
facet normal 0.0 0.0 1.0
  outer loop
    vertex 36.37590634263108 33.15566987200793 71.00000000000006
    vertex 38.750906342631076 35.11685354516926 71.00000000000006
    vertex 36.37590634263108 96.59566987200793 71.00000000000006
  endloop
endfacet
facet normal 0.0 0.0 1.0
  outer loop
    vertex 38.750906342631076 35.11685354516926 71.00000000000006
    vertex 36.37590634263108 33.15566987200793 71.00000000000006
    vertex 76.27590634263109 20.675669872007926 71.00000000000006
  endloop
endfacet
facet normal 0.0 0.0 1.0
  outer loop
    vertex 38.750906342631076 35.11685354516926 71.00000000000006
    vertex 76.27590634263109 20.675669872007926 71.00000000000006
    vertex 76.27590634263109 23.3797106880264 71.00000000000006
  endloop
endfacet
facet normal 0.0 0.0 1.0
  outer loop
    vertex 36.37590634263108 96.59566987200793 71.00000000000006
    vertex 38.750906342631076 94.95402904257993 71.00000000000006
    vertex 76.27590634263109 117.39566987200794 71.00000000000006
  endloop
endfacet
facet normal 0.0 0.0 1.0
  outer loop
    vertex 38.750906342631076 94.95402904257993 71.00000000000006
    vertex 36.37590634263108 96.59566987200793 71.00000000000006
    vertex 38.750906342631076 35.11685354516926 71.00000000000006
  endloop
endfacet
facet normal 0.0 0.0 1.0
  outer loop
    vertex 76.27590634263109 117.39566987200794 71.00000000000006
    vertex 38.750906342631076 94.95402904257993 71.00000000000006
    vertex 76.27590634263109 114.51593380448473 71.00000000000006
  endloop
endfacet
facet normal 0.2525301059539753 0.9675890375499684 0.0
  outer loop
    vertex 38.750906342631076 35.11685354516926 71.00000000000006
    vertex 76.27590634263109 23.3797106880264 3.0000000000000453
    vertex 38.750906342631076 35.11685354516926 3.0000000000000453
  endloop
endfacet
facet normal 0.2525301059539753 0.9675890375499684 0.0
  outer loop
    vertex 76.27590634263109 23.3797106880264 3.0000000000000453
    vertex 38.750906342631076 35.11685354516926 71.00000000000006
    vertex 76.27590634263109 23.3797106880264 71.00000000000006
  endloop
endfacet
facet normal 0.0 0.0 1.0
  outer loop
    vertex 76.27590634263109 23.3797106880264 3.0000000000000453
    vertex 38.750906342631076 94.95402904257993 3.0000000000000453
    vertex 38.750906342631076 35.11685354516926 3.0000000000000453
  endloop
endfacet
facet normal 0.0 0.0 1.0
  outer loop
    vertex 38.750906342631076 94.95402904257993 3.0000000000000453
    vertex 76.27590634263109 23.3797106880264 3.0000000000000453
    vertex 76.27590634263109 114.51593380448473 3.0000000000000453
  endloop
endfacet
facet normal 0.0 0.0 1.0
  outer loop
    vertex 113.80090634263108 35.11685354516927 3.0000000000000453
    vertex 76.27590634263109 114.5159338044847 3.0000000000000453
    vertex 76.27590634263109 23.379710688026396 3.0000000000000453
  endloop
endfacet
facet normal 0.0 0.0 1.0
  outer loop
    vertex 76.27590634263109 114.5159338044847 3.0000000000000453
    vertex 113.80090634263108 35.11685354516927 3.0000000000000453
    vertex 113.80090634263108 94.95402904257993 3.0000000000000453
  endloop
endfacet
facet normal 0.0 1.0 0.0
  outer loop
    vertex 113.80090634263108 78.11685354516926 19.000000000000043
    vertex 116.17590634263111 78.11685354516926 8.000000000000044
    vertex 113.80090634263108 78.11685354516926 8.000000000000044
  endloop
endfacet
facet normal 0.0 1.0 0.0
  outer loop
    vertex 116.17590634263111 78.11685354516926 8.000000000000044
    vertex 113.80090634263108 78.11685354516926 19.000000000000043
    vertex 116.17590634263111 78.11685354516926 19.000000000000043
  endloop
endfacet
facet normal 0.0 0.0 -1.0
  outer loop
    vertex 116.17590634263111 88.11685354516926 19.000000000000043
    vertex 113.80090634263108 78.11685354516926 19.000000000000043
    vertex 113.80090634263108 88.11685354516926 19.000000000000043
  endloop
endfacet
facet normal 0.0 0.0 -1.0
  outer loop
    vertex 113.80090634263108 78.11685354516926 19.000000000000043
    vertex 116.17590634263111 88.11685354516926 19.000000000000043
    vertex 116.17590634263111 78.11685354516926 19.000000000000043
  endloop
endfacet
facet normal 0.2985201408176307 -0.9544033348255978 0.0
  outer loop
    vertex 116.17590634263108 33.15566987200793 71.00000000000006
    vertex 76.27590634263109 20.675669872007926 4.511946372076636e-14
    vertex 116.17590634263108 33.15566987200793 4.511946372076636e-14
  endloop
endfacet
facet normal 0.2985201408176307 -0.9544033348255978 0.0
  outer loop
    vertex 76.27590634263109 20.675669872007926 4.511946372076636e-14
    vertex 116.17590634263108 33.15566987200793 71.00000000000006
    vertex 76.27590634263109 20.675669872007926 71.00000000000006
  endloop
endfacet
facet normal 0.0 0.0 1.0
  outer loop
    vertex 116.17590634263108 33.15566987200793 71.00000000000006
    vertex 76.27590634263109 23.379710688026396 71.00000000000006
    vertex 76.27590634263109 20.675669872007926 71.00000000000006
  endloop
endfacet
facet normal 0.0 0.0 1.0
  outer loop
    vertex 76.27590634263109 23.379710688026396 71.00000000000006
    vertex 116.17590634263108 33.15566987200793 71.00000000000006
    vertex 113.80090634263108 35.11685354516927 71.00000000000006
  endloop
endfacet
facet normal 0.0 0.0 1.0
  outer loop
    vertex 113.80090634263108 35.11685354516927 71.00000000000006
    vertex 116.17590634263108 33.15566987200793 71.00000000000006
    vertex 113.80090634263108 94.95402904257993 71.00000000000006
  endloop
endfacet
facet normal 0.0 0.0 1.0
  outer loop
    vertex 113.80090634263108 94.95402904257993 71.00000000000006
    vertex 76.27590634263109 117.39566987200794 71.00000000000006
    vertex 76.27590634263109 114.5159338044847 71.00000000000006
  endloop
endfacet
facet normal 0.0 0.0 1.0
  outer loop
    vertex 76.27590634263109 117.39566987200794 71.00000000000006
    vertex 113.80090634263108 94.95402904257993 71.00000000000006
    vertex 116.17590634263108 96.59566987200793 71.00000000000006
  endloop
endfacet
facet normal 0.0 0.0 1.0
  outer loop
    vertex 116.17590634263108 96.59566987200793 71.00000000000006
    vertex 113.80090634263108 94.95402904257993 71.00000000000006
    vertex 116.17590634263108 33.15566987200793 71.00000000000006
  endloop
endfacet
facet normal 1.0 0.0 0.0
  outer loop
    vertex 116.17590634263108 33.15566987200793 4.511946372076636e-14
    vertex 116.17590634263111 45.11685354516927 8.000000000000044
    vertex 116.17590634263108 33.15566987200793 71.00000000000006
  endloop
endfacet
facet normal 1.0 0.0 0.0
  outer loop
    vertex 116.17590634263111 45.11685354516927 8.000000000000044
    vertex 116.17590634263108 33.15566987200793 4.511946372076636e-14
    vertex 116.17590634263108 96.59566987200793 4.511946372076636e-14
  endloop
endfacet
facet normal 1.0 0.0 0.0
  outer loop
    vertex 116.17590634263111 45.11685354516927 8.000000000000044
    vertex 116.17590634263108 96.59566987200793 4.511946372076636e-14
    vertex 116.17590634263111 58.11685354516926 8.000000000000044
  endloop
endfacet
facet normal 1.0 0.0 0.0
  outer loop
    vertex 116.17590634263111 58.11685354516926 8.000000000000044
    vertex 116.17590634263108 96.59566987200793 4.511946372076636e-14
    vertex 116.17590634263111 78.11685354516926 8.000000000000044
  endloop
endfacet
facet normal 1.0 0.0 0.0
  outer loop
    vertex 116.17590634263111 58.11685354516926 8.000000000000044
    vertex 116.17590634263111 78.11685354516926 8.000000000000044
    vertex 116.17590634263111 58.11685354516926 19.500000000000043
  endloop
endfacet
facet normal 1.0 0.0 0.0
  outer loop
    vertex 116.17590634263111 78.11685354516926 8.000000000000044
    vertex 116.17590634263108 96.59566987200793 4.511946372076636e-14
    vertex 116.17590634263111 88.11685354516926 8.000000000000044
  endloop
endfacet
facet normal 1.0 0.0 0.0
  outer loop
    vertex 116.17590634263111 88.11685354516926 8.000000000000044
    vertex 116.17590634263108 96.59566987200793 4.511946372076636e-14
    vertex 116.17590634263111 88.11685354516926 19.000000000000043
  endloop
endfacet
facet normal 1.0 0.0 0.0
  outer loop
    vertex 116.17590634263108 33.15566987200793 71.00000000000006
    vertex 116.17590634263111 45.11685354516927 19.500000000000043
    vertex 116.17590634263108 96.59566987200793 71.00000000000006
  endloop
endfacet
facet normal 1.0 0.0 0.0
  outer loop
    vertex 116.17590634263111 45.11685354516927 19.500000000000043
    vertex 116.17590634263108 33.15566987200793 71.00000000000006
    vertex 116.17590634263111 45.11685354516927 8.000000000000044
  endloop
endfacet
facet normal 1.0 0.0 0.0
  outer loop
    vertex 116.17590634263108 96.59566987200793 71.00000000000006
    vertex 116.17590634263111 45.11685354516927 19.500000000000043
    vertex 116.17590634263111 58.11685354516926 19.500000000000043
  endloop
endfacet
facet normal 1.0 0.0 0.0
  outer loop
    vertex 116.17590634263108 96.59566987200793 71.00000000000006
    vertex 116.17590634263111 58.11685354516926 19.500000000000043
    vertex 116.17590634263111 78.11685354516926 19.000000000000043
  endloop
endfacet
facet normal 1.0 0.0 0.0
  outer loop
    vertex 116.17590634263111 78.11685354516926 19.000000000000043
    vertex 116.17590634263111 58.11685354516926 19.500000000000043
    vertex 116.17590634263111 78.11685354516926 8.000000000000044
  endloop
endfacet
facet normal 1.0 0.0 0.0
  outer loop
    vertex 116.17590634263108 96.59566987200793 71.00000000000006
    vertex 116.17590634263111 78.11685354516926 19.000000000000043
    vertex 116.17590634263111 88.11685354516926 19.000000000000043
  endloop
endfacet
facet normal 1.0 0.0 0.0
  outer loop
    vertex 116.17590634263108 96.59566987200793 71.00000000000006
    vertex 116.17590634263111 88.11685354516926 19.000000000000043
    vertex 116.17590634263108 96.59566987200793 4.511946372076636e-14
  endloop
endfacet
facet normal 0.4622621725313564 0.886743302115438 0.0
  outer loop
    vertex 76.27590634263109 117.39566987200794 71.00000000000006
    vertex 116.17590634263108 96.59566987200793 4.511946372076636e-14
    vertex 76.27590634263109 117.39566987200794 4.511946372076636e-14
  endloop
endfacet
facet normal 0.4622621725313564 0.886743302115438 0.0
  outer loop
    vertex 116.17590634263108 96.59566987200793 4.511946372076636e-14
    vertex 76.27590634263109 117.39566987200794 71.00000000000006
    vertex 116.17590634263108 96.59566987200793 71.00000000000006
  endloop
endfacet
facet normal -0.4622621725313564 -0.886743302115438 -1.2199947765012932e-32
  outer loop
    vertex 113.80090634263108 94.95402904257993 71.00000000000006
    vertex 76.27590634263109 114.5159338044847 3.0000000000000453
    vertex 113.80090634263108 94.95402904257993 3.0000000000000453
  endloop
endfacet
facet normal -0.4622621725313564 -0.886743302115438 -1.2199947765012932e-32
  outer loop
    vertex 76.27590634263109 114.5159338044847 3.0000000000000453
    vertex 113.80090634263108 94.95402904257993 71.00000000000006
    vertex 76.27590634263109 114.5159338044847 71.00000000000006
  endloop
endfacet
facet normal -1.0 -8.954193229045143e-17 0.0
  outer loop
    vertex 113.80090634263108 35.11685354516927 71.00000000000006
    vertex 113.80090634263108 45.11685354516927 19.500000000000043
    vertex 113.80090634263108 35.11685354516927 3.0000000000000453
  endloop
endfacet
facet normal -1.0 -8.954193229045143e-17 0.0
  outer loop
    vertex 113.80090634263108 45.11685354516927 19.500000000000043
    vertex 113.80090634263108 35.11685354516927 71.00000000000006
    vertex 113.80090634263108 94.95402904257993 71.00000000000006
  endloop
endfacet
facet normal -1.0 -8.954193229045143e-17 0.0
  outer loop
    vertex 113.80090634263108 45.11685354516927 19.500000000000043
    vertex 113.80090634263108 94.95402904257993 71.00000000000006
    vertex 113.80090634263108 58.11685354516926 19.500000000000043
  endloop
endfacet
facet normal -1.0 -8.954193229045143e-17 0.0
  outer loop
    vertex 113.80090634263108 58.11685354516926 19.500000000000043
    vertex 113.80090634263108 94.95402904257993 71.00000000000006
    vertex 113.80090634263108 58.11685354516926 8.000000000000044
  endloop
endfacet
facet normal -1.0 -8.954193229045143e-17 0.0
  outer loop
    vertex 113.80090634263108 58.11685354516926 8.000000000000044
    vertex 113.80090634263108 94.95402904257993 71.00000000000006
    vertex 113.80090634263108 78.11685354516926 19.000000000000043
  endloop
endfacet
facet normal -1.0 -8.954193229045143e-17 0.0
  outer loop
    vertex 113.80090634263108 78.11685354516926 19.000000000000043
    vertex 113.80090634263108 94.95402904257993 71.00000000000006
    vertex 113.80090634263108 88.11685354516926 19.000000000000043
  endloop
endfacet
facet normal -1.0 -8.954193229045143e-17 0.0
  outer loop
    vertex 113.80090634263108 88.11685354516926 19.000000000000043
    vertex 113.80090634263108 94.95402904257993 71.00000000000006
    vertex 113.80090634263108 88.11685354516926 8.000000000000044
  endloop
endfacet
facet normal -1.0 -8.954193229045143e-17 0.0
  outer loop
    vertex 113.80090634263108 35.11685354516927 3.0000000000000453
    vertex 113.80090634263108 45.11685354516927 8.000000000000044
    vertex 113.80090634263108 94.95402904257993 3.0000000000000453
  endloop
endfacet
facet normal -1.0 -8.954193229045143e-17 0.0
  outer loop
    vertex 113.80090634263108 45.11685354516927 8.000000000000044
    vertex 113.80090634263108 35.11685354516927 3.0000000000000453
    vertex 113.80090634263108 45.11685354516927 19.500000000000043
  endloop
endfacet
facet normal -1.0 -8.954193229045143e-17 0.0
  outer loop
    vertex 113.80090634263108 94.95402904257993 3.0000000000000453
    vertex 113.80090634263108 45.11685354516927 8.000000000000044
    vertex 113.80090634263108 58.11685354516926 8.000000000000044
  endloop
endfacet
facet normal -1.0 -8.954193229045143e-17 0.0
  outer loop
    vertex 113.80090634263108 94.95402904257993 3.0000000000000453
    vertex 113.80090634263108 58.11685354516926 8.000000000000044
    vertex 113.80090634263108 78.11685354516926 8.000000000000044
  endloop
endfacet
facet normal -1.0 -8.954193229045143e-17 0.0
  outer loop
    vertex 113.80090634263108 78.11685354516926 8.000000000000044
    vertex 113.80090634263108 58.11685354516926 8.000000000000044
    vertex 113.80090634263108 78.11685354516926 19.000000000000043
  endloop
endfacet
facet normal -1.0 -8.954193229045143e-17 0.0
  outer loop
    vertex 113.80090634263108 94.95402904257993 3.0000000000000453
    vertex 113.80090634263108 78.11685354516926 8.000000000000044
    vertex 113.80090634263108 88.11685354516926 8.000000000000044
  endloop
endfacet
facet normal -1.0 -8.954193229045143e-17 0.0
  outer loop
    vertex 113.80090634263108 94.95402904257993 3.0000000000000453
    vertex 113.80090634263108 88.11685354516926 8.000000000000044
    vertex 113.80090634263108 94.95402904257993 71.00000000000006
  endloop
endfacet
facet normal 0.0 1.0 0.0
  outer loop
    vertex 113.80090634263108 45.11685354516927 19.500000000000043
    vertex 116.17590634263111 45.11685354516927 8.000000000000044
    vertex 113.80090634263108 45.11685354516927 8.000000000000044
  endloop
endfacet
facet normal 0.0 1.0 0.0
  outer loop
    vertex 116.17590634263111 45.11685354516927 8.000000000000044
    vertex 113.80090634263108 45.11685354516927 19.500000000000043
    vertex 116.17590634263111 45.11685354516927 19.500000000000043
  endloop
endfacet
facet normal 0.0 0.0 -1.0
  outer loop
    vertex 116.17590634263111 58.11685354516926 19.500000000000043
    vertex 113.80090634263108 45.11685354516927 19.500000000000043
    vertex 113.80090634263108 58.11685354516926 19.500000000000043
  endloop
endfacet
facet normal 0.0 0.0 -1.0
  outer loop
    vertex 113.80090634263108 45.11685354516927 19.500000000000043
    vertex 116.17590634263111 58.11685354516926 19.500000000000043
    vertex 116.17590634263111 45.11685354516927 19.500000000000043
  endloop
endfacet
facet normal -0.29852014081763106 0.9544033348255976 -3.2827061686987073e-33
  outer loop
    vertex 76.27590634263109 23.379710688026396 71.00000000000006
    vertex 113.80090634263108 35.11685354516927 3.0000000000000453
    vertex 76.27590634263109 23.379710688026396 3.0000000000000453
  endloop
endfacet
facet normal -0.29852014081763106 0.9544033348255976 -3.2827061686987073e-33
  outer loop
    vertex 113.80090634263108 35.11685354516927 3.0000000000000453
    vertex 76.27590634263109 23.379710688026396 71.00000000000006
    vertex 113.80090634263108 35.11685354516927 71.00000000000006
  endloop
endfacet
facet normal -0.0 -1.0 -0.0
  outer loop
    vertex 116.17590634263111 58.11685354516926 19.500000000000043
    vertex 113.80090634263108 58.11685354516926 8.000000000000044
    vertex 116.17590634263111 58.11685354516926 8.000000000000044
  endloop
endfacet
facet normal -0.0 -1.0 -0.0
  outer loop
    vertex 113.80090634263108 58.11685354516926 8.000000000000044
    vertex 116.17590634263111 58.11685354516926 19.500000000000043
    vertex 113.80090634263108 58.11685354516926 19.500000000000043
  endloop
endfacet
facet normal 0.0 0.0 1.0
  outer loop
    vertex 116.17590634263111 45.11685354516927 8.000000000000044
    vertex 113.80090634263108 58.11685354516926 8.000000000000044
    vertex 113.80090634263108 45.11685354516927 8.000000000000044
  endloop
endfacet
facet normal 0.0 0.0 1.0
  outer loop
    vertex 113.80090634263108 58.11685354516926 8.000000000000044
    vertex 116.17590634263111 45.11685354516927 8.000000000000044
    vertex 116.17590634263111 58.11685354516926 8.000000000000044
  endloop
endfacet
facet normal 0.0 0.0 -1.0
  outer loop
    vertex 116.17590634263108 96.59566987200793 4.511946372076636e-14
    vertex 76.27590634263109 20.675669872007926 4.511946372076636e-14
    vertex 76.27590634263109 117.39566987200794 4.511946372076636e-14
  endloop
endfacet
facet normal 0.0 0.0 -1.0
  outer loop
    vertex 76.27590634263109 20.675669872007926 4.511946372076636e-14
    vertex 116.17590634263108 96.59566987200793 4.511946372076636e-14
    vertex 116.17590634263108 33.15566987200793 4.511946372076636e-14
  endloop
endfacet
facet normal -0.0 -1.0 -0.0
  outer loop
    vertex 116.17590634263111 88.11685354516926 19.000000000000043
    vertex 113.80090634263108 88.11685354516926 8.000000000000044
    vertex 116.17590634263111 88.11685354516926 8.000000000000044
  endloop
endfacet
facet normal -0.0 -1.0 -0.0
  outer loop
    vertex 113.80090634263108 88.11685354516926 8.000000000000044
    vertex 116.17590634263111 88.11685354516926 19.000000000000043
    vertex 113.80090634263108 88.11685354516926 19.000000000000043
  endloop
endfacet
facet normal 0.0 0.0 1.0
  outer loop
    vertex 116.17590634263111 78.11685354516926 8.000000000000044
    vertex 113.80090634263108 88.11685354516926 8.000000000000044
    vertex 113.80090634263108 78.11685354516926 8.000000000000044
  endloop
endfacet
facet normal 0.0 0.0 1.0
  outer loop
    vertex 113.80090634263108 88.11685354516926 8.000000000000044
    vertex 116.17590634263111 78.11685354516926 8.000000000000044
    vertex 116.17590634263111 88.11685354516926 8.000000000000044
  endloop
endfacet
facet normal 0.2985201408176304 0.9544033348255978 -0.0
  outer loop
    vertex 45.36341843851747 30.344538269084058 46.07034163955328
    vertex 42.73967390577199 31.165198213160846 19.44688614217108
    vertex 38.88139937951684 32.37199686197448 19.44688614217108
  endloop
endfacet
facet normal 0.2985201408176304 0.9544033348255978 -0.0
  outer loop
    vertex 42.73967390577199 31.165198213160846 19.44688614217108
    vertex 45.36341843851747 30.344538269084058 46.07034163955328
    vertex 43.853034338462834 30.816959160529724 24.713064152642286
  endloop
endfacet
facet normal 0.2985201408176304 0.9544033348255978 -0.0
  outer loop
    vertex 43.853034338462834 30.816959160529724 24.713064152642286
    vertex 45.36341843851747 30.344538269084058 46.07034163955328
    vertex 44.43715264684778 30.63425749414767 27.408845753240644
  endloop
endfacet
facet normal 0.2985201408176304 0.9544033348255978 -0.0
  outer loop
    vertex 44.43715264684778 30.63425749414767 27.408845753240644
    vertex 45.36341843851747 30.344538269084058 46.07034163955328
    vertex 46.93309828110046 29.853570739373893 40.04042414703271
  endloop
endfacet
facet normal 0.2985201408176304 0.9544033348255978 -0.0
  outer loop
    vertex 46.93309828110046 29.853570739373893 40.04042414703271
    vertex 45.36341843851747 30.344538269084058 46.07034163955328
    vertex 48.68692639240506 29.305004954183882 46.07034163955328
  endloop
endfacet
facet normal 0.2985201408176304 0.9544033348255978 -0.0
  outer loop
    vertex 46.93309828110046 29.853570739373893 40.04042414703271
    vertex 48.68692639240506 29.305004954183882 46.07034163955328
    vertex 47.029591973910584 29.82338925350246 40.04042414703271
  endloop
endfacet
facet normal 0.2985201408176304 0.9544033348255978 -0.0
  outer loop
    vertex 47.029591973910584 29.82338925350246 40.04042414703271
    vertex 48.68692639240506 29.305004954183882 46.07034163955328
    vertex 49.66880496122867 28.99789105596537 27.408845753240644
  endloop
endfacet
facet normal 0.2985201408176304 0.9544033348255978 -0.0
  outer loop
    vertex 49.66880496122867 28.99789105596537 27.408845753240644
    vertex 48.68692639240506 29.305004954183882 46.07034163955328
    vertex 55.21608740819841 27.26280120789062 19.44688614217108
  endloop
endfacet
facet normal 0.2985201408176304 0.9544033348255978 -0.0
  outer loop
    vertex 49.66880496122867 28.99789105596537 27.408845753240644
    vertex 55.21608740819841 27.26280120789062 19.44688614217108
    vertex 50.20946427819533 28.828782577876552 24.713064152642286
  endloop
endfacet
facet normal 0.2985201408176304 0.9544033348255978 -0.0
  outer loop
    vertex 50.20946427819533 28.828782577876552 24.713064152642286
    vertex 55.21608740819841 27.26280120789062 19.44688614217108
    vertex 51.30809284938844 28.48515138568382 19.44688614217108
  endloop
endfacet
facet normal 0.2985201408176304 0.9544033348255978 -0.0
  outer loop
    vertex 44.43715264684778 30.63425749414767 27.408845753240644
    vertex 50.20946427819533 28.828782577876552 24.713064152642286
    vertex 43.853034338462834 30.816959160529724 24.713064152642286
  endloop
endfacet
facet normal 0.2985201408176304 0.9544033348255978 -0.0
  outer loop
    vertex 50.20946427819533 28.828782577876552 24.713064152642286
    vertex 44.43715264684778 30.63425749414767 27.408845753240644
    vertex 49.66880496122867 28.99789105596537 27.408845753240644
  endloop
endfacet
facet normal 0.2985201408176304 0.9544033348255978 -0.0
  outer loop
    vertex 59.88314113067887 25.803031021009524 46.07034163955328
    vertex 63.937349414853806 24.534947828365333 43.29096991180459
    vertex 59.88314113067887 25.803031021009524 19.44688614217108
  endloop
endfacet
facet normal 0.2985201408176304 0.9544033348255978 -0.0
  outer loop
    vertex 63.937349414853806 24.534947828365333 43.29096991180459
    vertex 59.88314113067887 25.803031021009524 46.07034163955328
    vertex 65.49303398901394 24.048357766071636 46.07034163955328
  endloop
endfacet
facet normal 0.2985201408176304 0.9544033348255978 -0.0
  outer loop
    vertex 63.937349414853806 24.534947828365333 43.29096991180459
    vertex 65.49303398901394 24.048357766071636 46.07034163955328
    vertex 64.17305919881747 24.461222061351137 43.29096991180459
  endloop
endfacet
facet normal 0.2985201408176304 0.9544033348255978 -0.0
  outer loop
    vertex 64.17305919881747 24.461222061351137 43.29096991180459
    vertex 65.49303398901394 24.048357766071636 46.07034163955328
    vertex 66.14418226721355 23.844690334694914 43.034975147406676
  endloop
endfacet
facet normal 0.2985201408176304 0.9544033348255978 -0.0
  outer loop
    vertex 66.14418226721355 23.844690334694914 43.034975147406676
    vertex 65.49303398901394 24.048357766071636 46.07034163955328
    vertex 67.1006483749536 23.54552499573262 45.96389483701027
  endloop
endfacet
facet normal 0.2985201408176304 0.9544033348255978 -0.0
  outer loop
    vertex 66.14418226721355 23.844690334694914 43.034975147406676
    vertex 67.1006483749536 23.54552499573262 45.96389483701027
    vertex 67.43763970671415 23.44012018820451 42.26699085421296
  endloop
endfacet
facet normal 0.2985201408176304 0.9544033348255978 -0.0
  outer loop
    vertex 67.43763970671415 23.44012018820451 42.26699085421296
    vertex 67.1006483749536 23.54552499573262 45.96389483701027
    vertex 68.49391417610128 23.10973659477214 45.64455442938125
  endloop
endfacet
facet normal 0.2985201408176304 0.9544033348255978 -0.0
  outer loop
    vertex 67.43763970671415 23.44012018820451 42.26699085421296
    vertex 68.49391417610128 23.10973659477214 45.64455442938125
    vertex 68.15360817550375 23.216178170898885 40.8982025221262
  endloop
endfacet
facet normal 0.2985201408176304 0.9544033348255978 -0.0
  outer loop
    vertex 68.15360817550375 23.216178170898885 40.8982025221262
    vertex 68.49391417610128 23.10973659477214 45.64455442938125
    vertex 68.39226433176697 23.14153083179701 38.839795641049164
  endloop
endfacet
facet normal 0.2985201408176304 0.9544033348255978 -0.0
  outer loop
    vertex 68.13003719710738 23.223550747600303 36.72130835608283
    vertex 68.03906795235892 23.252004285807345 32.23617559617257
    vertex 67.34335579312867 23.469610495010187 35.381254130203985
  endloop
endfacet
facet normal 0.2985201408176304 0.9544033348255978 -0.0
  outer loop
    vertex 68.03906795235892 23.252004285807345 32.23617559617257
    vertex 68.13003719710738 23.223550747600303 36.72130835608283
    vertex 70.00696842605238 22.63648052862202 33.22358397313593
  endloop
endfacet
facet normal 0.2985201408176304 0.9544033348255978 -0.0
  outer loop
    vertex 70.00696842605238 22.63648052862202 33.22358397313593
    vertex 68.13003719710738 23.223550747600303 36.72130835608283
    vertex 68.39226433176697 23.14153083179701 38.839795641049164
  endloop
endfacet
facet normal 0.2985201408176304 0.9544033348255978 -0.0
  outer loop
    vertex 70.00696842605238 22.63648052862202 33.22358397313593
    vertex 68.39226433176697 23.14153083179701 38.839795641049164
    vertex 68.49391417610128 23.10973659477214 45.64455442938125
  endloop
endfacet
facet normal 0.2985201408176304 0.9544033348255978 -0.0
  outer loop
    vertex 70.00696842605238 22.63648052862202 33.22358397313593
    vertex 68.49391417610128 23.10973659477214 45.64455442938125
    vertex 69.67283139245701 22.740992563190193 45.112320416666215
  endloop
endfacet
facet normal 0.2985201408176304 0.9544033348255978 -0.0
  outer loop
    vertex 70.00696842605238 22.63648052862202 33.22358397313593
    vertex 69.67283139245701 22.740992563190193 45.112320416666215
    vertex 70.6374000240208 22.439292900986782 44.36719279886516
  endloop
endfacet
facet normal 0.2985201408176304 0.9544033348255978 -0.0
  outer loop
    vertex 70.00696842605238 22.63648052862202 33.22358397313593
    vertex 70.6374000240208 22.439292900986782 44.36719279886516
    vertex 71.3386366313127 22.21995874411955 34.59759668816958
  endloop
endfacet
facet normal 0.2985201408176304 0.9544033348255978 -0.0
  outer loop
    vertex 71.3386366313127 22.21995874411955 34.59759668816958
    vertex 70.6374000240208 22.439292900986782 44.36719279886516
    vertex 71.38762007079264 22.20463760816191 43.40917157597811
  endloop
endfacet
facet normal 0.2985201408176304 0.9544033348255978 -0.0
  outer loop
    vertex 71.3386366313127 22.21995874411955 34.59759668816958
    vertex 71.38762007079264 22.20463760816191 43.40917157597811
    vertex 72.0988006845955 21.982193145498762 36.5462915273618
  endloop
endfacet
facet normal 0.2985201408176304 0.9544033348255978 -0.0
  outer loop
    vertex 72.0988006845955 21.982193145498762 36.5462915273618
    vertex 71.38762007079264 22.20463760816191 43.40917157597811
    vertex 71.92349153277253 22.03702668471557 42.23825674800503
  endloop
endfacet
facet normal 0.2985201408176304 0.9544033348255978 -0.0
  outer loop
    vertex 72.0988006845955 21.982193145498762 36.5462915273618
    vertex 71.92349153277253 22.03702668471557 42.23825674800503
    vertex 72.24501440996046 21.936460130647767 40.85444831494594
  endloop
endfacet
facet normal 0.2985201408176304 0.9544033348255978 -0.0
  outer loop
    vertex 72.0988006845955 21.982193145498762 36.5462915273618
    vertex 72.24501440996046 21.936460130647767 40.85444831494594
    vertex 72.35218870235643 21.9029379459585 39.257746276800844
  endloop
endfacet
facet normal 0.2985201408176304 0.9544033348255978 -0.0
  outer loop
    vertex 65.96739992924081 23.899984659955564 34.65767709205889
    vertex 63.937349414853806 24.534947828365333 31.943610151146398
    vertex 63.937349414853806 24.534947828365333 34.38862137029374
  endloop
endfacet
facet normal 0.2985201408176304 0.9544033348255978 -0.0
  outer loop
    vertex 63.937349414853806 24.534947828365333 31.943610151146398
    vertex 65.96739992924081 23.899984659955564 34.65767709205889
    vertex 64.29091409079929 24.42435917784404 31.943610151146398
  endloop
endfacet
facet normal 0.2985201408176304 0.9544033348255978 -0.0
  outer loop
    vertex 64.29091409079929 24.42435917784404 31.943610151146398
    vertex 65.96739992924081 23.899984659955564 34.65767709205889
    vertex 68.99479746702406 22.95306933986697 19.44688614217108
  endloop
endfacet
facet normal 0.2985201408176304 0.9544033348255978 -0.0
  outer loop
    vertex 68.99479746702406 22.95306933986697 19.44688614217108
    vertex 65.96739992924081 23.899984659955564 34.65767709205889
    vertex 67.34335579312867 23.469610495010187 35.381254130203985
  endloop
endfacet
facet normal 0.2985201408176304 0.9544033348255978 -0.0
  outer loop
    vertex 68.99479746702406 22.95306933986697 19.44688614217108
    vertex 67.34335579312867 23.469610495010187 35.381254130203985
    vertex 68.03906795235892 23.252004285807345 32.23617559617257
  endloop
endfacet
facet normal 0.2985201408176304 0.9544033348255978 -0.0
  outer loop
    vertex 68.99479746702406 22.95306933986697 19.44688614217108
    vertex 68.03906795235892 23.252004285807345 32.23617559617257
    vertex 73.2007439246256 21.63752518470739 19.44688614217108
  endloop
endfacet
facet normal 0.2985201408176304 0.9544033348255978 -0.0
  outer loop
    vertex 63.937349414853806 24.534947828365333 43.29096991180459
    vertex 63.937349414853806 24.534947828365333 19.44688614217108
    vertex 59.88314113067887 25.803031021009524 19.44688614217108
  endloop
endfacet
facet normal 0.2985201408176304 0.9544033348255978 -0.0
  outer loop
    vertex 63.937349414853806 24.534947828365333 19.44688614217108
    vertex 63.937349414853806 24.534947828365333 43.29096991180459
    vertex 63.937349414853806 24.534947828365333 34.38862137029374
  endloop
endfacet
facet normal 0.2985201408176304 0.9544033348255978 -0.0
  outer loop
    vertex 63.937349414853806 24.534947828365333 19.44688614217108
    vertex 63.937349414853806 24.534947828365333 34.38862137029374
    vertex 63.937349414853806 24.534947828365333 31.943610151146398
  endloop
endfacet
facet normal -0.2985201408176304 -0.9544033348255978 0.0
  outer loop
    vertex 49.89251947428643 27.815473469225523 24.713064152642286
    vertex 44.12020784293888 29.620948385496632 27.408845753240644
    vertex 43.53608953455394 29.80365005187869 24.713064152642286
  endloop
endfacet
facet normal -0.2985201408176304 -0.9544033348255978 0.0
  outer loop
    vertex 44.12020784293888 29.620948385496632 27.408845753240644
    vertex 49.89251947428643 27.815473469225523 24.713064152642286
    vertex 49.351860157319784 27.984581947314336 27.408845753240644
  endloop
endfacet
facet normal -0.2985201408176304 -0.9544033348255978 0.0
  outer loop
    vertex 42.42272910186309 30.15188910450981 19.44688614217108
    vertex 45.046473634608574 29.331229160433033 46.07034163955328
    vertex 38.56445457560795 31.358687753323448 19.44688614217108
  endloop
endfacet
facet normal -0.2985201408176304 -0.9544033348255978 0.0
  outer loop
    vertex 45.046473634608574 29.331229160433033 46.07034163955328
    vertex 42.42272910186309 30.15188910450981 19.44688614217108
    vertex 43.53608953455394 29.80365005187869 24.713064152642286
  endloop
endfacet
facet normal -0.2985201408176304 -0.9544033348255978 0.0
  outer loop
    vertex 45.046473634608574 29.331229160433033 46.07034163955328
    vertex 43.53608953455394 29.80365005187869 24.713064152642286
    vertex 44.12020784293888 29.620948385496632 27.408845753240644
  endloop
endfacet
facet normal -0.2985201408176304 -0.9544033348255978 0.0
  outer loop
    vertex 45.046473634608574 29.331229160433033 46.07034163955328
    vertex 44.12020784293888 29.620948385496632 27.408845753240644
    vertex 46.61615347719157 28.84026163072286 40.04042414703271
  endloop
endfacet
facet normal -0.2985201408176304 -0.9544033348255978 0.0
  outer loop
    vertex 45.046473634608574 29.331229160433033 46.07034163955328
    vertex 46.61615347719157 28.84026163072286 40.04042414703271
    vertex 48.369981588496174 28.291695845532853 46.07034163955328
  endloop
endfacet
facet normal -0.2985201408176304 -0.9544033348255978 0.0
  outer loop
    vertex 48.369981588496174 28.291695845532853 46.07034163955328
    vertex 46.61615347719157 28.84026163072286 40.04042414703271
    vertex 46.71264717000169 28.810080144851426 40.04042414703271
  endloop
endfacet
facet normal -0.2985201408176304 -0.9544033348255978 0.0
  outer loop
    vertex 48.369981588496174 28.291695845532853 46.07034163955328
    vertex 46.71264717000169 28.810080144851426 40.04042414703271
    vertex 49.351860157319784 27.984581947314336 27.408845753240644
  endloop
endfacet
facet normal -0.2985201408176304 -0.9544033348255978 0.0
  outer loop
    vertex 48.369981588496174 28.291695845532853 46.07034163955328
    vertex 49.351860157319784 27.984581947314336 27.408845753240644
    vertex 54.89914260428952 26.249492099239593 19.44688614217108
  endloop
endfacet
facet normal -0.2985201408176304 -0.9544033348255978 0.0
  outer loop
    vertex 54.89914260428952 26.249492099239593 19.44688614217108
    vertex 49.351860157319784 27.984581947314336 27.408845753240644
    vertex 49.89251947428643 27.815473469225523 24.713064152642286
  endloop
endfacet
facet normal -0.2985201408176304 -0.9544033348255978 0.0
  outer loop
    vertex 54.89914260428952 26.249492099239593 19.44688614217108
    vertex 49.89251947428643 27.815473469225523 24.713064152642286
    vertex 50.99114804547955 27.47184227703279 19.44688614217108
  endloop
endfacet
facet normal 0.0 -0.0 -1.0
  outer loop
    vertex 54.89914260428952 26.249492099239593 19.44688614217108
    vertex 51.30809284938844 28.48515138568382 19.44688614217108
    vertex 55.21608740819841 27.26280120789062 19.44688614217108
  endloop
endfacet
facet normal 0.0 -0.0 -1.0
  outer loop
    vertex 51.30809284938844 28.48515138568382 19.44688614217108
    vertex 54.89914260428952 26.249492099239593 19.44688614217108
    vertex 50.99114804547955 27.47184227703279 19.44688614217108
  endloop
endfacet
facet normal -0.9429255953350663 0.29493011102209565 -0.15462066897573995
  outer loop
    vertex 49.89251947428643 27.815473469225523 24.713064152642286
    vertex 51.30809284938844 28.48515138568382 19.44688614217108
    vertex 50.99114804547955 27.47184227703279 19.44688614217108
  endloop
endfacet
facet normal -0.9429255953350663 0.29493011102209565 -0.15462066897573995
  outer loop
    vertex 51.30809284938844 28.48515138568382 19.44688614217108
    vertex 49.89251947428643 27.815473469225523 24.713064152642286
    vertex 50.20946427819533 28.828782577876552 24.713064152642286
  endloop
endfacet
facet normal 0.0 -0.0 -1.0
  outer loop
    vertex 49.89251947428643 27.815473469225523 24.713064152642286
    vertex 43.853034338462834 30.816959160529724 24.713064152642286
    vertex 50.20946427819533 28.828782577876552 24.713064152642286
  endloop
endfacet
facet normal 0.0 -0.0 -1.0
  outer loop
    vertex 43.853034338462834 30.816959160529724 24.713064152642286
    vertex 49.89251947428643 27.815473469225523 24.713064152642286
    vertex 43.53608953455394 29.80365005187869 24.713064152642286
  endloop
endfacet
facet normal 0.9426214289912063 -0.2948349732784522 -0.15664348099576425
  outer loop
    vertex 43.853034338462834 30.816959160529724 24.713064152642286
    vertex 42.42272910186309 30.15188910450981 19.44688614217108
    vertex 42.73967390577199 31.165198213160846 19.44688614217108
  endloop
endfacet
facet normal 0.9426214289912063 -0.2948349732784522 -0.15664348099576425
  outer loop
    vertex 42.42272910186309 30.15188910450981 19.44688614217108
    vertex 43.853034338462834 30.816959160529724 24.713064152642286
    vertex 43.53608953455394 29.80365005187869 24.713064152642286
  endloop
endfacet
facet normal 0.0 -0.0 -1.0
  outer loop
    vertex 42.42272910186309 30.15188910450981 19.44688614217108
    vertex 38.88139937951684 32.37199686197448 19.44688614217108
    vertex 42.73967390577199 31.165198213160846 19.44688614217108
  endloop
endfacet
facet normal 0.0 -0.0 -1.0
  outer loop
    vertex 38.88139937951684 32.37199686197448 19.44688614217108
    vertex 42.42272910186309 30.15188910450981 19.44688614217108
    vertex 38.56445457560795 31.358687753323448 19.44688614217108
  endloop
endfacet
facet normal -0.9388714621860726 0.2936620513303803 0.17967464234281552
  outer loop
    vertex 45.046473634608574 29.331229160433033 46.07034163955328
    vertex 38.88139937951684 32.37199686197448 19.44688614217108
    vertex 38.56445457560795 31.358687753323448 19.44688614217108
  endloop
endfacet
facet normal -0.9388714621860726 0.2936620513303803 0.17967464234281552
  outer loop
    vertex 38.88139937951684 32.37199686197448 19.44688614217108
    vertex 45.046473634608574 29.331229160433033 46.07034163955328
    vertex 45.36341843851747 30.344538269084058 46.07034163955328
  endloop
endfacet
facet normal 0.0 0.0 1.0
  outer loop
    vertex 45.046473634608574 29.331229160433033 46.07034163955328
    vertex 48.68692639240506 29.305004954183882 46.07034163955328
    vertex 45.36341843851747 30.344538269084058 46.07034163955328
  endloop
endfacet
facet normal 0.0 0.0 1.0
  outer loop
    vertex 48.68692639240506 29.305004954183882 46.07034163955328
    vertex 45.046473634608574 29.331229160433033 46.07034163955328
    vertex 48.369981588496174 28.291695845532853 46.07034163955328
  endloop
endfacet
facet normal 0.9386503055707582 -0.29359287753190605 0.18093873580429695
  outer loop
    vertex 48.68692639240506 29.305004954183882 46.07034163955328
    vertex 54.89914260428952 26.249492099239593 19.44688614217108
    vertex 55.21608740819841 27.26280120789062 19.44688614217108
  endloop
endfacet
facet normal 0.9386503055707582 -0.29359287753190605 0.18093873580429695
  outer loop
    vertex 54.89914260428952 26.249492099239593 19.44688614217108
    vertex 48.68692639240506 29.305004954183882 46.07034163955328
    vertex 48.369981588496174 28.291695845532853 46.07034163955328
  endloop
endfacet
facet normal -0.9428912100741766 0.29491935593297525 -0.15485070055034908
  outer loop
    vertex 46.71264717000169 28.810080144851426 40.04042414703271
    vertex 49.66880496122867 28.99789105596537 27.408845753240644
    vertex 49.351860157319784 27.984581947314336 27.408845753240644
  endloop
endfacet
facet normal -0.9428912100741766 0.29491935593297525 -0.15485070055034908
  outer loop
    vertex 49.66880496122867 28.99789105596537 27.408845753240644
    vertex 46.71264717000169 28.810080144851426 40.04042414703271
    vertex 47.029591973910584 29.82338925350246 40.04042414703271
  endloop
endfacet
facet normal 0.0 -0.0 -1.0
  outer loop
    vertex 46.71264717000169 28.810080144851426 40.04042414703271
    vertex 46.93309828110046 29.853570739373893 40.04042414703271
    vertex 47.029591973910584 29.82338925350246 40.04042414703271
  endloop
endfacet
facet normal 0.0 -0.0 -1.0
  outer loop
    vertex 46.93309828110046 29.853570739373893 40.04042414703271
    vertex 46.71264717000169 28.810080144851426 40.04042414703271
    vertex 46.61615347719157 28.84026163072286 40.04042414703271
  endloop
endfacet
facet normal 0.9440874989490684 -0.2952935335058738 -0.14663056774666136
  outer loop
    vertex 46.93309828110046 29.853570739373893 40.04042414703271
    vertex 44.12020784293888 29.620948385496632 27.408845753240644
    vertex 44.43715264684778 30.63425749414767 27.408845753240644
  endloop
endfacet
facet normal 0.9440874989490684 -0.2952935335058738 -0.14663056774666136
  outer loop
    vertex 44.12020784293888 29.620948385496632 27.408845753240644
    vertex 46.93309828110046 29.853570739373893 40.04042414703271
    vertex 46.61615347719157 28.84026163072286 40.04042414703271
  endloop
endfacet
facet normal 0.0 0.0 1.0
  outer loop
    vertex 44.12020784293888 29.620948385496632 27.408845753240644
    vertex 49.66880496122867 28.99789105596537 27.408845753240644
    vertex 44.43715264684778 30.63425749414767 27.408845753240644
  endloop
endfacet
facet normal 0.0 0.0 1.0
  outer loop
    vertex 49.66880496122867 28.99789105596537 27.408845753240644
    vertex 44.12020784293888 29.620948385496632 27.408845753240644
    vertex 49.351860157319784 27.984581947314336 27.408845753240644
  endloop
endfacet
facet normal -0.2985201408176304 -0.9544033348255978 0.0
  outer loop
    vertex 63.97396928689039 23.411050069193006 31.943610151146398
    vertex 63.6204046109449 23.521638719714304 34.38862137029374
    vertex 63.6204046109449 23.521638719714304 31.943610151146398
  endloop
endfacet
facet normal -0.2985201408176304 -0.9544033348255978 0.0
  outer loop
    vertex 63.6204046109449 23.521638719714304 34.38862137029374
    vertex 63.97396928689039 23.411050069193006 31.943610151146398
    vertex 65.65045512533192 22.886675551304528 34.65767709205889
  endloop
endfacet
facet normal -0.2985201408176304 -0.9544033348255978 0.0
  outer loop
    vertex 65.65045512533192 22.886675551304528 34.65767709205889
    vertex 63.97396928689039 23.411050069193006 31.943610151146398
    vertex 68.67785266311516 21.939760231215935 19.44688614217108
  endloop
endfacet
facet normal -0.2985201408176304 -0.9544033348255978 0.0
  outer loop
    vertex 65.65045512533192 22.886675551304528 34.65767709205889
    vertex 68.67785266311516 21.939760231215935 19.44688614217108
    vertex 67.02641098921978 22.456301386359154 35.381254130203985
  endloop
endfacet
facet normal -0.2985201408176304 -0.9544033348255978 0.0
  outer loop
    vertex 67.02641098921978 22.456301386359154 35.381254130203985
    vertex 68.67785266311516 21.939760231215935 19.44688614217108
    vertex 67.72212314845002 22.238695177156316 32.23617559617257
  endloop
endfacet
facet normal -0.2985201408176304 -0.9544033348255978 0.0
  outer loop
    vertex 67.72212314845002 22.238695177156316 32.23617559617257
    vertex 68.67785266311516 21.939760231215935 19.44688614217108
    vertex 72.8837991207167 20.62421607605636 19.44688614217108
  endloop
endfacet
facet normal -0.2985201408176304 -0.9544033348255978 0.0
  outer loop
    vertex 67.72212314845002 22.238695177156316 32.23617559617257
    vertex 67.8130923931985 22.21024163894927 36.72130835608283
    vertex 67.02641098921978 22.456301386359154 35.381254130203985
  endloop
endfacet
facet normal -0.2985201408176304 -0.9544033348255978 0.0
  outer loop
    vertex 67.8130923931985 22.21024163894927 36.72130835608283
    vertex 67.72212314845002 22.238695177156316 32.23617559617257
    vertex 69.69002362214349 21.623171419970987 33.22358397313593
  endloop
endfacet
facet normal -0.2985201408176304 -0.9544033348255978 0.0
  outer loop
    vertex 67.8130923931985 22.21024163894927 36.72130835608283
    vertex 69.69002362214349 21.623171419970987 33.22358397313593
    vertex 68.07531952785807 22.12822172314598 38.839795641049164
  endloop
endfacet
facet normal -0.2985201408176304 -0.9544033348255978 0.0
  outer loop
    vertex 68.07531952785807 22.12822172314598 38.839795641049164
    vertex 69.69002362214349 21.623171419970987 33.22358397313593
    vertex 68.17696937219239 22.096427486121105 45.64455442938125
  endloop
endfacet
facet normal -0.2985201408176304 -0.9544033348255978 0.0
  outer loop
    vertex 68.17696937219239 22.096427486121105 45.64455442938125
    vertex 69.69002362214349 21.623171419970987 33.22358397313593
    vertex 69.35588658854813 21.72768345453916 45.112320416666215
  endloop
endfacet
facet normal -0.2985201408176304 -0.9544033348255978 0.0
  outer loop
    vertex 69.35588658854813 21.72768345453916 45.112320416666215
    vertex 69.69002362214349 21.623171419970987 33.22358397313593
    vertex 70.32045522011192 21.42598379233575 44.36719279886516
  endloop
endfacet
facet normal -0.2985201408176304 -0.9544033348255978 0.0
  outer loop
    vertex 70.32045522011192 21.42598379233575 44.36719279886516
    vertex 69.69002362214349 21.623171419970987 33.22358397313593
    vertex 71.0216918274038 21.206649635468516 34.59759668816958
  endloop
endfacet
facet normal -0.2985201408176304 -0.9544033348255978 0.0
  outer loop
    vertex 70.32045522011192 21.42598379233575 44.36719279886516
    vertex 71.0216918274038 21.206649635468516 34.59759668816958
    vertex 71.07067526688375 21.191328499510877 43.40917157597811
  endloop
endfacet
facet normal -0.2985201408176304 -0.9544033348255978 0.0
  outer loop
    vertex 71.07067526688375 21.191328499510877 43.40917157597811
    vertex 71.0216918274038 21.206649635468516 34.59759668816958
    vertex 71.7818558806866 20.96888403684773 36.5462915273618
  endloop
endfacet
facet normal -0.2985201408176304 -0.9544033348255978 0.0
  outer loop
    vertex 71.07067526688375 21.191328499510877 43.40917157597811
    vertex 71.7818558806866 20.96888403684773 36.5462915273618
    vertex 71.60654672886363 21.023717576064538 42.23825674800503
  endloop
endfacet
facet normal -0.2985201408176304 -0.9544033348255978 0.0
  outer loop
    vertex 71.60654672886363 21.023717576064538 42.23825674800503
    vertex 71.7818558806866 20.96888403684773 36.5462915273618
    vertex 71.92806960605157 20.923151021996734 40.85444831494594
  endloop
endfacet
facet normal -0.2985201408176304 -0.9544033348255978 0.0
  outer loop
    vertex 71.92806960605157 20.923151021996734 40.85444831494594
    vertex 71.7818558806866 20.96888403684773 36.5462915273618
    vertex 72.03524389844753 20.88962883730747 39.257746276800844
  endloop
endfacet
facet normal -0.2985201408176304 -0.9544033348255978 0.0
  outer loop
    vertex 63.6204046109449 23.521638719714304 19.44688614217108
    vertex 59.56619632676997 24.78972191235849 46.07034163955328
    vertex 59.56619632676997 24.78972191235849 19.44688614217108
  endloop
endfacet
facet normal -0.2985201408176304 -0.9544033348255978 0.0
  outer loop
    vertex 59.56619632676997 24.78972191235849 46.07034163955328
    vertex 63.6204046109449 23.521638719714304 19.44688614217108
    vertex 63.6204046109449 23.521638719714304 43.29096991180459
  endloop
endfacet
facet normal -0.2985201408176304 -0.9544033348255978 0.0
  outer loop
    vertex 59.56619632676997 24.78972191235849 46.07034163955328
    vertex 63.6204046109449 23.521638719714304 43.29096991180459
    vertex 65.17608918510506 23.035048657420603 46.07034163955328
  endloop
endfacet
facet normal -0.2985201408176304 -0.9544033348255978 0.0
  outer loop
    vertex 63.6204046109449 23.521638719714304 43.29096991180459
    vertex 63.6204046109449 23.521638719714304 19.44688614217108
    vertex 63.6204046109449 23.521638719714304 31.943610151146398
  endloop
endfacet
facet normal -0.2985201408176304 -0.9544033348255978 0.0
  outer loop
    vertex 63.6204046109449 23.521638719714304 43.29096991180459
    vertex 63.6204046109449 23.521638719714304 31.943610151146398
    vertex 63.6204046109449 23.521638719714304 34.38862137029374
  endloop
endfacet
facet normal -0.2985201408176304 -0.9544033348255978 0.0
  outer loop
    vertex 65.17608918510506 23.035048657420603 46.07034163955328
    vertex 63.6204046109449 23.521638719714304 43.29096991180459
    vertex 63.856114394908566 23.447912952700104 43.29096991180459
  endloop
endfacet
facet normal -0.2985201408176304 -0.9544033348255978 0.0
  outer loop
    vertex 65.17608918510506 23.035048657420603 46.07034163955328
    vertex 63.856114394908566 23.447912952700104 43.29096991180459
    vertex 65.82723746330467 22.83138122604388 43.034975147406676
  endloop
endfacet
facet normal -0.2985201408176304 -0.9544033348255978 0.0
  outer loop
    vertex 65.17608918510506 23.035048657420603 46.07034163955328
    vertex 65.82723746330467 22.83138122604388 43.034975147406676
    vertex 66.7837035710447 22.532215887081588 45.96389483701027
  endloop
endfacet
facet normal -0.2985201408176304 -0.9544033348255978 0.0
  outer loop
    vertex 66.7837035710447 22.532215887081588 45.96389483701027
    vertex 65.82723746330467 22.83138122604388 43.034975147406676
    vertex 67.12069490280524 22.426811079553474 42.26699085421296
  endloop
endfacet
facet normal -0.2985201408176304 -0.9544033348255978 0.0
  outer loop
    vertex 66.7837035710447 22.532215887081588 45.96389483701027
    vertex 67.12069490280524 22.426811079553474 42.26699085421296
    vertex 68.17696937219239 22.096427486121105 45.64455442938125
  endloop
endfacet
facet normal -0.2985201408176304 -0.9544033348255978 0.0
  outer loop
    vertex 68.17696937219239 22.096427486121105 45.64455442938125
    vertex 67.12069490280524 22.426811079553474 42.26699085421296
    vertex 67.83666337159485 22.202869062247853 40.8982025221262
  endloop
endfacet
facet normal -0.2985201408176304 -0.9544033348255978 0.0
  outer loop
    vertex 68.17696937219239 22.096427486121105 45.64455442938125
    vertex 67.83666337159485 22.202869062247853 40.8982025221262
    vertex 68.07531952785807 22.12822172314598 38.839795641049164
  endloop
endfacet
facet normal 0.0 -0.0 -1.0
  outer loop
    vertex 72.8837991207167 20.62421607605636 19.44688614217108
    vertex 68.99479746702406 22.95306933986697 19.44688614217108
    vertex 73.2007439246256 21.63752518470739 19.44688614217108
  endloop
endfacet
facet normal 0.0 -0.0 -1.0
  outer loop
    vertex 68.99479746702406 22.95306933986697 19.44688614217108
    vertex 72.8837991207167 20.62421607605636 19.44688614217108
    vertex 68.67785266311516 21.939760231215935 19.44688614217108
  endloop
endfacet
facet normal -0.9184873250829582 0.28728626107857913 -0.27174921868782415
  outer loop
    vertex 63.97396928689039 23.411050069193006 31.943610151146398
    vertex 68.99479746702406 22.95306933986697 19.44688614217108
    vertex 68.67785266311516 21.939760231215935 19.44688614217108
  endloop
endfacet
facet normal -0.9184873250829582 0.28728626107857913 -0.27174921868782415
  outer loop
    vertex 68.99479746702406 22.95306933986697 19.44688614217108
    vertex 63.97396928689039 23.411050069193006 31.943610151146398
    vertex 64.29091409079929 24.42435917784404 31.943610151146398
  endloop
endfacet
facet normal 0.0 -0.0 -1.0
  outer loop
    vertex 63.97396928689039 23.411050069193006 31.943610151146398
    vertex 63.937349414853806 24.534947828365333 31.943610151146398
    vertex 64.29091409079929 24.42435917784404 31.943610151146398
  endloop
endfacet
facet normal 0.0 -0.0 -1.0
  outer loop
    vertex 63.937349414853806 24.534947828365333 31.943610151146398
    vertex 63.97396928689039 23.411050069193006 31.943610151146398
    vertex 63.6204046109449 23.521638719714304 31.943610151146398
  endloop
endfacet
facet normal 0.9544033348255978 -0.29852014081763034 0.0
  outer loop
    vertex 63.937349414853806 24.534947828365333 31.943610151146398
    vertex 63.6204046109449 23.521638719714304 19.44688614217108
    vertex 63.937349414853806 24.534947828365333 19.44688614217108
  endloop
endfacet
facet normal 0.9544033348255978 -0.29852014081763034 0.0
  outer loop
    vertex 63.6204046109449 23.521638719714304 19.44688614217108
    vertex 63.937349414853806 24.534947828365333 31.943610151146398
    vertex 63.6204046109449 23.521638719714304 31.943610151146398
  endloop
endfacet
facet normal 0.0 -0.0 -1.0
  outer loop
    vertex 63.6204046109449 23.521638719714304 19.44688614217108
    vertex 59.88314113067887 25.803031021009524 19.44688614217108
    vertex 63.937349414853806 24.534947828365333 19.44688614217108
  endloop
endfacet
facet normal 0.0 -0.0 -1.0
  outer loop
    vertex 59.88314113067887 25.803031021009524 19.44688614217108
    vertex 63.6204046109449 23.521638719714304 19.44688614217108
    vertex 59.56619632676997 24.78972191235849 19.44688614217108
  endloop
endfacet
facet normal -0.9544033348255979 0.29852014081763034 0.0
  outer loop
    vertex 59.56619632676997 24.78972191235849 46.07034163955328
    vertex 59.88314113067887 25.803031021009524 19.44688614217108
    vertex 59.56619632676997 24.78972191235849 19.44688614217108
  endloop
endfacet
facet normal -0.9544033348255979 0.29852014081763034 0.0
  outer loop
    vertex 59.88314113067887 25.803031021009524 19.44688614217108
    vertex 59.56619632676997 24.78972191235849 46.07034163955328
    vertex 59.88314113067887 25.803031021009524 46.07034163955328
  endloop
endfacet
facet normal 0.0 0.0 1.0
  outer loop
    vertex 59.56619632676997 24.78972191235849 46.07034163955328
    vertex 65.49303398901394 24.048357766071636 46.07034163955328
    vertex 59.88314113067887 25.803031021009524 46.07034163955328
  endloop
endfacet
facet normal 0.0 0.0 1.0
  outer loop
    vertex 65.49303398901394 24.048357766071636 46.07034163955328
    vertex 59.56619632676997 24.78972191235849 46.07034163955328
    vertex 65.17608918510506 23.035048657420603 46.07034163955328
  endloop
endfacet
facet normal 0.08391330505770447 -0.02624656759699626 0.9961273387090974
  outer loop
    vertex 65.17608918510506 23.035048657420603 46.07034163955328
    vertex 67.1006483749536 23.54552499573262 45.96389483701027
    vertex 65.49303398901394 24.048357766071636 46.07034163955328
  endloop
endfacet
facet normal 0.08391330505770447 -0.02624656759699626 0.9961273387090974
  outer loop
    vertex 67.1006483749536 23.54552499573262 45.96389483701027
    vertex 65.17608918510506 23.035048657420603 46.07034163955328
    vertex 66.7837035710447 22.532215887081588 45.96389483701027
  endloop
endfacet
facet normal 0.27887261173272326 -0.08722632066226524 0.9563585286957469
  outer loop
    vertex 66.7837035710447 22.532215887081588 45.96389483701027
    vertex 68.49391417610128 23.10973659477214 45.64455442938125
    vertex 67.1006483749536 23.54552499573262 45.96389483701027
  endloop
endfacet
facet normal 0.27887261173272326 -0.08722632066226524 0.9563585286957469
  outer loop
    vertex 68.49391417610128 23.10973659477214 45.64455442938125
    vertex 66.7837035710447 22.532215887081588 45.96389483701027
    vertex 68.17696937219239 22.096427486121105 45.64455442938125
  endloop
endfacet
facet normal 0.49211868797806435 -0.15392584526231173 0.8568115493520331
  outer loop
    vertex 68.17696937219239 22.096427486121105 45.64455442938125
    vertex 69.67283139245701 22.740992563190193 45.112320416666215
    vertex 68.49391417610128 23.10973659477214 45.64455442938125
  endloop
endfacet
facet normal 0.49211868797806435 -0.15392584526231173 0.8568115493520331
  outer loop
    vertex 69.67283139245701 22.740992563190193 45.112320416666215
    vertex 68.17696937219239 22.096427486121105 45.64455442938125
    vertex 69.35588658854813 21.72768345453916 45.112320416666215
  endloop
endfacet
facet normal 0.6846822530055957 -0.2141562535716749 0.6966687243412939
  outer loop
    vertex 69.35588658854813 21.72768345453916 45.112320416666215
    vertex 70.6374000240208 22.439292900986782 44.36719279886516
    vertex 69.67283139245701 22.740992563190193 45.112320416666215
  endloop
endfacet
facet normal 0.6846822530055957 -0.2141562535716749 0.6966687243412939
  outer loop
    vertex 70.6374000240208 22.439292900986782 44.36719279886516
    vertex 69.35588658854813 21.72768345453916 45.112320416666215
    vertex 70.32045522011192 21.42598379233575 44.36719279886516
  endloop
endfacet
facet normal 0.8229106209520098 -0.2573915927188239 0.506525100979255
  outer loop
    vertex 70.6374000240208 22.439292900986782 44.36719279886516
    vertex 71.07067526688375 21.191328499510877 43.40917157597811
    vertex 71.38762007079264 22.20463760816191 43.40917157597811
  endloop
endfacet
facet normal 0.8229106209520098 -0.2573915927188239 0.506525100979255
  outer loop
    vertex 71.07067526688375 21.191328499510877 43.40917157597811
    vertex 70.6374000240208 22.439292900986782 44.36719279886516
    vertex 70.32045522011192 21.42598379233575 44.36719279886516
  endloop
endfacet
facet normal 0.902685061580533 -0.28234359820864763 0.3247179886454447
  outer loop
    vertex 71.38762007079264 22.20463760816191 43.40917157597811
    vertex 71.60654672886363 21.023717576064538 42.23825674800503
    vertex 71.92349153277253 22.03702668471557 42.23825674800503
  endloop
endfacet
facet normal 0.902685061580533 -0.28234359820864763 0.3247179886454447
  outer loop
    vertex 71.60654672886363 21.023717576064538 42.23825674800503
    vertex 71.38762007079264 22.20463760816191 43.40917157597811
    vertex 71.07067526688375 21.191328499510877 43.40917157597811
  endloop
endfacet
facet normal 0.9402275669693552 -0.2940862164355274 0.17171318998120924
  outer loop
    vertex 71.92349153277253 22.03702668471557 42.23825674800503
    vertex 71.92806960605157 20.923151021996734 40.85444831494594
    vertex 72.24501440996046 21.936460130647767 40.85444831494594
  endloop
endfacet
facet normal 0.9402275669693552 -0.2940862164355274 0.17171318998120924
  outer loop
    vertex 71.92806960605157 20.923151021996734 40.85444831494594
    vertex 71.92349153277253 22.03702668471557 42.23825674800503
    vertex 71.60654672886363 21.023717576064538 42.23825674800503
  endloop
endfacet
facet normal 0.9531956768201937 -0.2981424071858648 0.050290224981710575
  outer loop
    vertex 72.24501440996046 21.936460130647767 40.85444831494594
    vertex 72.03524389844753 20.88962883730747 39.257746276800844
    vertex 72.35218870235643 21.9029379459585 39.257746276800844
  endloop
endfacet
facet normal 0.9531956768201937 -0.2981424071858648 0.050290224981710575
  outer loop
    vertex 72.03524389844753 20.88962883730747 39.257746276800844
    vertex 72.24501440996046 21.936460130647767 40.85444831494594
    vertex 71.92806960605157 20.923151021996734 40.85444831494594
  endloop
endfacet
facet normal 0.9520666207536286 -0.2977892588221873 -0.06993358976128014
  outer loop
    vertex 72.35218870235643 21.9029379459585 39.257746276800844
    vertex 71.7818558806866 20.96888403684773 36.5462915273618
    vertex 72.0988006845955 21.982193145498762 36.5462915273618
  endloop
endfacet
facet normal 0.9520666207536286 -0.2977892588221873 -0.06993358976128014
  outer loop
    vertex 71.7818558806866 20.96888403684773 36.5462915273618
    vertex 72.35218870235643 21.9029379459585 39.257746276800844
    vertex 72.03524389844753 20.88962883730747 39.257746276800844
  endloop
endfacet
facet normal 0.9159877598912702 -0.2865044421915549 -0.2808587337682032
  outer loop
    vertex 72.0988006845955 21.982193145498762 36.5462915273618
    vertex 71.0216918274038 21.206649635468516 34.59759668816958
    vertex 71.3386366313127 22.21995874411955 34.59759668816958
  endloop
endfacet
facet normal 0.9159877598912702 -0.2865044421915549 -0.2808587337682032
  outer loop
    vertex 71.0216918274038 21.206649635468516 34.59759668816958
    vertex 72.0988006845955 21.982193145498762 36.5462915273618
    vertex 71.7818558806866 20.96888403684773 36.5462915273618
  endloop
endfacet
facet normal 0.7719374479449376 -0.24144810401886746 -0.5880607022459081
  outer loop
    vertex 71.3386366313127 22.21995874411955 34.59759668816958
    vertex 69.69002362214349 21.623171419970987 33.22358397313593
    vertex 70.00696842605238 22.63648052862202 33.22358397313593
  endloop
endfacet
facet normal 0.7719374479449376 -0.24144810401886746 -0.5880607022459081
  outer loop
    vertex 69.69002362214349 21.623171419970987 33.22358397313593
    vertex 71.3386366313127 22.21995874411955 34.59759668816958
    vertex 71.0216918274038 21.206649635468516 34.59759668816958
  endloop
endfacet
facet normal 0.5306047383335838 -0.16596358732839897 -0.8312127882432019
  outer loop
    vertex 69.69002362214349 21.623171419970987 33.22358397313593
    vertex 68.03906795235892 23.252004285807345 32.23617559617257
    vertex 70.00696842605238 22.63648052862202 33.22358397313593
  endloop
endfacet
facet normal 0.5306047383335838 -0.16596358732839897 -0.8312127882432019
  outer loop
    vertex 68.03906795235892 23.252004285807345 32.23617559617257
    vertex 69.69002362214349 21.623171419970987 33.22358397313593
    vertex 67.72212314845002 22.238695177156316 32.23617559617257
  endloop
endfacet
facet normal 0.9134535683724576 -0.28571179281424214 0.2897781045463848
  outer loop
    vertex 68.03906795235892 23.252004285807345 32.23617559617257
    vertex 72.8837991207167 20.62421607605636 19.44688614217108
    vertex 73.2007439246256 21.63752518470739 19.44688614217108
  endloop
endfacet
facet normal 0.9134535683724576 -0.28571179281424214 0.2897781045463848
  outer loop
    vertex 72.8837991207167 20.62421607605636 19.44688614217108
    vertex 68.03906795235892 23.252004285807345 32.23617559617257
    vertex 67.72212314845002 22.238695177156316 32.23617559617257
  endloop
endfacet
facet normal -0.16604522873646396 0.05193595124388643 0.9847495310901385
  outer loop
    vertex 63.6204046109449 23.521638719714304 34.38862137029374
    vertex 65.96739992924081 23.899984659955564 34.65767709205889
    vertex 63.937349414853806 24.534947828365333 34.38862137029374
  endloop
endfacet
facet normal -0.16604522873646396 0.05193595124388643 0.9847495310901385
  outer loop
    vertex 65.96739992924081 23.899984659955564 34.65767709205889
    vertex 63.6204046109449 23.521638719714304 34.38862137029374
    vertex 65.65045512533192 22.886675551304528 34.65767709205889
  endloop
endfacet
facet normal -0.5478349800144007 0.17135289600450412 0.8188498151086626
  outer loop
    vertex 65.65045512533192 22.886675551304528 34.65767709205889
    vertex 67.34335579312867 23.469610495010187 35.381254130203985
    vertex 65.96739992924081 23.899984659955564 34.65767709205889
  endloop
endfacet
facet normal -0.5478349800144007 0.17135289600450412 0.8188498151086626
  outer loop
    vertex 67.34335579312867 23.469610495010187 35.381254130203985
    vertex 65.65045512533192 22.886675551304528 34.65767709205889
    vertex 67.02641098921978 22.456301386359154 35.381254130203985
  endloop
endfacet
facet normal -0.8734522106521099 0.2732000899483289 0.4030421151184666
  outer loop
    vertex 67.8130923931985 22.21024163894927 36.72130835608283
    vertex 67.34335579312867 23.469610495010187 35.381254130203985
    vertex 67.02641098921978 22.456301386359154 35.381254130203985
  endloop
endfacet
facet normal -0.8734522106521099 0.2732000899483289 0.4030421151184666
  outer loop
    vertex 67.34335579312867 23.469610495010187 35.381254130203985
    vertex 67.8130923931985 22.21024163894927 36.72130835608283
    vertex 68.13003719710738 23.223550747600303 36.72130835608283
  endloop
endfacet
facet normal -0.9503150475095588 0.297241398318779 0.09246005409041391
  outer loop
    vertex 68.07531952785807 22.12822172314598 38.839795641049164
    vertex 68.13003719710738 23.223550747600303 36.72130835608283
    vertex 67.8130923931985 22.21024163894927 36.72130835608283
  endloop
endfacet
facet normal -0.9503150475095588 0.297241398318779 0.09246005409041391
  outer loop
    vertex 68.13003719710738 23.223550747600303 36.72130835608283
    vertex 68.07531952785807 22.12822172314598 38.839795641049164
    vertex 68.39226433176697 23.14153083179701 38.839795641049164
  endloop
endfacet
facet normal -0.9508135980514181 0.29739733593187184 -0.08665059919666906
  outer loop
    vertex 67.83666337159485 22.202869062247853 40.8982025221262
    vertex 68.39226433176697 23.14153083179701 38.839795641049164
    vertex 68.07531952785807 22.12822172314598 38.839795641049164
  endloop
endfacet
facet normal -0.9508135980514181 0.29739733593187184 -0.08665059919666906
  outer loop
    vertex 68.39226433176697 23.14153083179701 38.839795641049164
    vertex 67.83666337159485 22.202869062247853 40.8982025221262
    vertex 68.15360817550375 23.216178170898885 40.8982025221262
  endloop
endfacet
facet normal -0.888451762043381 0.27789167895492195 -0.3652802777178451
  outer loop
    vertex 67.12069490280524 22.426811079553474 42.26699085421296
    vertex 68.15360817550375 23.216178170898885 40.8982025221262
    vertex 67.83666337159485 22.202869062247853 40.8982025221262
  endloop
endfacet
facet normal -0.888451762043381 0.27789167895492195 -0.3652802777178451
  outer loop
    vertex 68.15360817550375 23.216178170898885 40.8982025221262
    vertex 67.12069490280524 22.426811079553474 42.26699085421296
    vertex 67.43763970671415 23.44012018820451 42.26699085421296
  endloop
endfacet
facet normal -0.5923096583957289 0.1852637728515963 -0.7841215486389385
  outer loop
    vertex 67.12069490280524 22.426811079553474 42.26699085421296
    vertex 66.14418226721355 23.844690334694914 43.034975147406676
    vertex 67.43763970671415 23.44012018820451 42.26699085421296
  endloop
endfacet
facet normal -0.5923096583957289 0.1852637728515963 -0.7841215486389385
  outer loop
    vertex 66.14418226721355 23.844690334694914 43.034975147406676
    vertex 67.12069490280524 22.426811079553474 42.26699085421296
    vertex 65.82723746330467 22.83138122604388 43.034975147406676
  endloop
endfacet
facet normal -0.16280587568330643 0.05092274006334993 -0.985343149053888
  outer loop
    vertex 65.82723746330467 22.83138122604388 43.034975147406676
    vertex 64.17305919881747 24.461222061351137 43.29096991180459
    vertex 66.14418226721355 23.844690334694914 43.034975147406676
  endloop
endfacet
facet normal -0.16280587568330643 0.05092274006334993 -0.985343149053888
  outer loop
    vertex 64.17305919881747 24.461222061351137 43.29096991180459
    vertex 65.82723746330467 22.83138122604388 43.034975147406676
    vertex 63.856114394908566 23.447912952700104 43.29096991180459
  endloop
endfacet
facet normal 0.0 -0.0 -1.0
  outer loop
    vertex 63.856114394908566 23.447912952700104 43.29096991180459
    vertex 63.937349414853806 24.534947828365333 43.29096991180459
    vertex 64.17305919881747 24.461222061351137 43.29096991180459
  endloop
endfacet
facet normal 0.0 -0.0 -1.0
  outer loop
    vertex 63.937349414853806 24.534947828365333 43.29096991180459
    vertex 63.856114394908566 23.447912952700104 43.29096991180459
    vertex 63.6204046109449 23.521638719714304 43.29096991180459
  endloop
endfacet
facet normal 0.9544033348255978 -0.29852014081763034 0.0
  outer loop
    vertex 63.937349414853806 24.534947828365333 43.29096991180459
    vertex 63.6204046109449 23.521638719714304 34.38862137029374
    vertex 63.937349414853806 24.534947828365333 34.38862137029374
  endloop
endfacet
facet normal 0.9544033348255978 -0.29852014081763034 0.0
  outer loop
    vertex 63.6204046109449 23.521638719714304 34.38862137029374
    vertex 63.937349414853806 24.534947828365333 43.29096991180459
    vertex 63.6204046109449 23.521638719714304 43.29096991180459
  endloop
endfacet
facet normal -0.298520140817632 0.9544033348255972 -0.0
  outer loop
    vertex 82.11127184599547 22.50086690163167 45.86079819990954
    vertex 82.81163587379865 22.71992813138063 19.50440803710528
    vertex 79.66351639714208 21.73525316725347 19.50440803710528
  endloop
endfacet
facet normal -0.298520140817632 0.9544033348255972 -0.0
  outer loop
    vertex 82.81163587379865 22.71992813138063 19.50440803710528
    vertex 82.11127184599547 22.50086690163167 45.86079819990954
    vertex 84.12179697779742 23.12972288270656 36.3650500957281
  endloop
endfacet
facet normal -0.298520140817632 0.9544033348255972 -0.0
  outer loop
    vertex 84.12179697779742 23.12972288270656 36.3650500957281
    vertex 82.11127184599547 22.50086690163167 45.86079819990954
    vertex 85.02318292183769 23.41166014039133 45.86079819990954
  endloop
endfacet
facet normal -0.298520140817632 0.9544033348255972 -0.0
  outer loop
    vertex 84.12179697779742 23.12972288270656 36.3650500957281
    vertex 85.02318292183769 23.41166014039133 45.86079819990954
    vertex 84.22031913461377 23.160538835515283 36.3650500957281
  endloop
endfacet
facet normal -0.298520140817632 0.9544033348255972 -0.0
  outer loop
    vertex 84.22031913461377 23.160538835515283 36.3650500957281
    vertex 85.02318292183769 23.41166014039133 45.86079819990954
    vertex 87.43758770270045 24.166842387638624 19.50440803710528
  endloop
endfacet
facet normal -0.298520140817632 0.9544033348255972 -0.0
  outer loop
    vertex 87.43758770270045 24.166842387638624 19.50440803710528
    vertex 85.02318292183769 23.41166014039133 45.86079819990954
    vertex 88.49501805660512 24.497587520890004 27.386499600706866
  endloop
endfacet
facet normal -0.298520140817632 0.9544033348255972 -0.0
  outer loop
    vertex 87.43758770270045 24.166842387638624 19.50440803710528
    vertex 88.49501805660512 24.497587520890004 27.386499600706866
    vertex 89.53286636691895 24.82220774426636 19.50440803710528
  endloop
endfacet
facet normal -0.298520140817632 0.9544033348255972 -0.0
  outer loop
    vertex 89.53286636691895 24.82220774426636 19.50440803710528
    vertex 88.49501805660512 24.497587520890004 27.386499600706866
    vertex 88.57334623096843 24.522087160390107 27.386499600706866
  endloop
endfacet
facet normal -0.298520140817632 0.9544033348255972 -0.0
  outer loop
    vertex 89.53286636691895 24.82220774426636 19.50440803710528
    vertex 88.57334623096843 24.522087160390107 27.386499600706866
    vertex 92.12503938725469 25.63299268897287 45.86079819990954
  endloop
endfacet
facet normal -0.298520140817632 0.9544033348255972 -0.0
  outer loop
    vertex 89.53286636691895 24.82220774426636 19.50440803710528
    vertex 92.12503938725469 25.63299268897287 45.86079819990954
    vertex 92.9321867465141 25.885453817884084 36.3650500957281
  endloop
endfacet
facet normal -0.298520140817632 0.9544033348255972 -0.0
  outer loop
    vertex 92.9321867465141 25.885453817884084 36.3650500957281
    vertex 92.12503938725469 25.63299268897287 45.86079819990954
    vertex 95.03542061594138 26.543307419148547 45.86079819990954
  endloop
endfacet
facet normal -0.298520140817632 0.9544033348255972 -0.0
  outer loop
    vertex 92.9321867465141 25.885453817884084 36.3650500957281
    vertex 95.03542061594138 26.543307419148547 45.86079819990954
    vertex 93.01082089030851 25.910049159100982 36.3650500957281
  endloop
endfacet
facet normal -0.298520140817632 0.9544033348255972 -0.0
  outer loop
    vertex 93.01082089030851 25.910049159100982 36.3650500957281
    vertex 95.03542061594138 26.543307419148547 45.86079819990954
    vertex 94.27753433509015 26.306254266641695 19.50440803710528
  endloop
endfacet
facet normal -0.298520140817632 0.9544033348255972 -0.0
  outer loop
    vertex 94.27753433509015 26.306254266641695 19.50440803710528
    vertex 95.03542061594138 26.543307419148547 45.86079819990954
    vertex 97.38526584684064 27.278296604151613 19.50440803710528
  endloop
endfacet
facet normal -0.298520140817632 0.9544033348255972 -0.0
  outer loop
    vertex 109.11582786603941 30.947404724442322 45.86079819990954
    vertex 107.56792851407073 30.463249739164908 30.737940108065025
    vertex 105.97505165572939 29.965026601518304 34.02052868370373
  endloop
endfacet
facet normal -0.298520140817632 0.9544033348255972 -0.0
  outer loop
    vertex 107.56792851407073 30.463249739164908 30.737940108065025
    vertex 109.11582786603941 30.947404724442322 45.86079819990954
    vertex 112.42427532459585 31.982227388171253 45.86079819990954
  endloop
endfacet
facet normal -0.298520140817632 0.9544033348255972 -0.0
  outer loop
    vertex 102.79939493027322 28.971738482879385 45.86079819990954
    vertex 104.19981701644848 29.409765240660512 30.572436873133757
    vertex 99.4609624674683 27.927537050904323 45.86079819990954
  endloop
endfacet
facet normal -0.298520140817632 0.9544033348255972 -0.0
  outer loop
    vertex 104.19981701644848 29.409765240660512 30.572436873133757
    vertex 102.79939493027322 28.971738482879385 45.86079819990954
    vertex 105.90161899226379 29.942058189486957 33.985294596579685
  endloop
endfacet
facet normal -0.298520140817632 0.9544033348255972 -0.0
  outer loop
    vertex 104.19981701644848 29.409765240660512 30.572436873133757
    vertex 105.90161899226379 29.942058189486957 33.985294596579685
    vertex 104.19981701644848 29.409765240660512 19.50440803710528
  endloop
endfacet
facet normal -0.298520140817632 0.9544033348255972 -0.0
  outer loop
    vertex 104.19981701644848 29.409765240660512 19.50440803710528
    vertex 105.90161899226379 29.942058189486957 33.985294596579685
    vertex 107.56792851407073 30.463249739164908 19.50440803710528
  endloop
endfacet
facet normal -0.298520140817632 0.9544033348255972 -0.0
  outer loop
    vertex 107.56792851407073 30.463249739164908 19.50440803710528
    vertex 105.90161899226379 29.942058189486957 33.985294596579685
    vertex 105.97505165572939 29.965026601518304 34.02052868370373
  endloop
endfacet
facet normal -0.298520140817632 0.9544033348255972 -0.0
  outer loop
    vertex 107.56792851407073 30.463249739164908 19.50440803710528
    vertex 105.97505165572939 29.965026601518304 34.02052868370373
    vertex 107.56792851407073 30.463249739164908 30.737940108065025
  endloop
endfacet
facet normal 0.298520140817632 -0.9544033348255972 0.0
  outer loop
    vertex 83.12691254716066 21.711952228564602 19.50440803710528
    vertex 82.42654851935748 21.492890998815643 45.86079819990954
    vertex 79.97879307050408 20.727277264437443 19.50440803710528
  endloop
endfacet
facet normal 0.298520140817632 -0.9544033348255972 0.0
  outer loop
    vertex 82.42654851935748 21.492890998815643 45.86079819990954
    vertex 83.12691254716066 21.711952228564602 19.50440803710528
    vertex 84.43707365115942 22.12174697989053 36.3650500957281
  endloop
endfacet
facet normal 0.298520140817632 -0.9544033348255972 0.0
  outer loop
    vertex 82.42654851935748 21.492890998815643 45.86079819990954
    vertex 84.43707365115942 22.12174697989053 36.3650500957281
    vertex 85.3384595951997 22.403684237575305 45.86079819990954
  endloop
endfacet
facet normal 0.298520140817632 -0.9544033348255972 0.0
  outer loop
    vertex 85.3384595951997 22.403684237575305 45.86079819990954
    vertex 84.43707365115942 22.12174697989053 36.3650500957281
    vertex 84.53559580797578 22.152562932699254 36.3650500957281
  endloop
endfacet
facet normal 0.298520140817632 -0.9544033348255972 0.0
  outer loop
    vertex 85.3384595951997 22.403684237575305 45.86079819990954
    vertex 84.53559580797578 22.152562932699254 36.3650500957281
    vertex 87.75286437606245 23.1588664848226 19.50440803710528
  endloop
endfacet
facet normal 0.298520140817632 -0.9544033348255972 0.0
  outer loop
    vertex 85.3384595951997 22.403684237575305 45.86079819990954
    vertex 87.75286437606245 23.1588664848226 19.50440803710528
    vertex 88.81029472996713 23.48961161807398 27.386499600706866
  endloop
endfacet
facet normal 0.298520140817632 -0.9544033348255972 0.0
  outer loop
    vertex 88.81029472996713 23.48961161807398 27.386499600706866
    vertex 87.75286437606245 23.1588664848226 19.50440803710528
    vertex 89.84814304028096 23.814231841450333 19.50440803710528
  endloop
endfacet
facet normal 0.298520140817632 -0.9544033348255972 0.0
  outer loop
    vertex 88.81029472996713 23.48961161807398 27.386499600706866
    vertex 89.84814304028096 23.814231841450333 19.50440803710528
    vertex 88.88862290433043 23.51411125757408 27.386499600706866
  endloop
endfacet
facet normal 0.298520140817632 -0.9544033348255972 0.0
  outer loop
    vertex 88.88862290433043 23.51411125757408 27.386499600706866
    vertex 89.84814304028096 23.814231841450333 19.50440803710528
    vertex 92.4403160606167 24.62501678615684 45.86079819990954
  endloop
endfacet
facet normal 0.298520140817632 -0.9544033348255972 0.0
  outer loop
    vertex 92.4403160606167 24.62501678615684 45.86079819990954
    vertex 89.84814304028096 23.814231841450333 19.50440803710528
    vertex 93.24746341987611 24.877477915068056 36.3650500957281
  endloop
endfacet
facet normal 0.298520140817632 -0.9544033348255972 0.0
  outer loop
    vertex 92.4403160606167 24.62501678615684 45.86079819990954
    vertex 93.24746341987611 24.877477915068056 36.3650500957281
    vertex 95.35069728930338 25.53533151633252 45.86079819990954
  endloop
endfacet
facet normal 0.298520140817632 -0.9544033348255972 0.0
  outer loop
    vertex 95.35069728930338 25.53533151633252 45.86079819990954
    vertex 93.24746341987611 24.877477915068056 36.3650500957281
    vertex 93.32609756367053 24.902073256284954 36.3650500957281
  endloop
endfacet
facet normal 0.298520140817632 -0.9544033348255972 0.0
  outer loop
    vertex 95.35069728930338 25.53533151633252 45.86079819990954
    vertex 93.32609756367053 24.902073256284954 36.3650500957281
    vertex 94.59281100845216 25.29827836382567 19.50440803710528
  endloop
endfacet
facet normal 0.298520140817632 -0.9544033348255972 0.0
  outer loop
    vertex 95.35069728930338 25.53533151633252 45.86079819990954
    vertex 94.59281100845216 25.29827836382567 19.50440803710528
    vertex 97.70054252020265 26.270320701335585 19.50440803710528
  endloop
endfacet
facet normal 0.0 0.0 -1.0
  outer loop
    vertex 97.70054252020265 26.270320701335585 19.50440803710528
    vertex 94.27753433509015 26.306254266641695 19.50440803710528
    vertex 97.38526584684064 27.278296604151613 19.50440803710528
  endloop
endfacet
facet normal 0.0 0.0 -1.0
  outer loop
    vertex 94.27753433509015 26.306254266641695 19.50440803710528
    vertex 97.70054252020265 26.270320701335585 19.50440803710528
    vertex 94.59281100845216 25.29827836382567 19.50440803710528
  endloop
endfacet
facet normal -0.9513615516194444 -0.2975687259200641 -0.07977500519932908
  outer loop
    vertex 93.32609756367053 24.902073256284954 36.3650500957281
    vertex 94.27753433509015 26.306254266641695 19.50440803710528
    vertex 94.59281100845216 25.29827836382567 19.50440803710528
  endloop
endfacet
facet normal -0.9513615516194444 -0.2975687259200641 -0.07977500519932908
  outer loop
    vertex 94.27753433509015 26.306254266641695 19.50440803710528
    vertex 93.32609756367053 24.902073256284954 36.3650500957281
    vertex 93.01082089030851 25.910049159100982 36.3650500957281
  endloop
endfacet
facet normal 0.0 0.0 -1.0
  outer loop
    vertex 93.32609756367053 24.902073256284954 36.3650500957281
    vertex 92.9321867465141 25.885453817884084 36.3650500957281
    vertex 93.01082089030851 25.910049159100982 36.3650500957281
  endloop
endfacet
facet normal 0.0 0.0 -1.0
  outer loop
    vertex 92.9321867465141 25.885453817884084 36.3650500957281
    vertex 93.32609756367053 24.902073256284954 36.3650500957281
    vertex 93.24746341987611 24.877477915068056 36.3650500957281
  endloop
endfacet
facet normal 0.9331258358313873 0.2918649230871079 -0.20997866838165158
  outer loop
    vertex 92.9321867465141 25.885453817884084 36.3650500957281
    vertex 89.84814304028096 23.814231841450333 19.50440803710528
    vertex 89.53286636691895 24.82220774426636 19.50440803710528
  endloop
endfacet
facet normal 0.9331258358313873 0.2918649230871079 -0.20997866838165158
  outer loop
    vertex 89.84814304028096 23.814231841450333 19.50440803710528
    vertex 92.9321867465141 25.885453817884084 36.3650500957281
    vertex 93.24746341987611 24.877477915068056 36.3650500957281
  endloop
endfacet
facet normal 0.0 0.0 -1.0
  outer loop
    vertex 89.84814304028096 23.814231841450333 19.50440803710528
    vertex 87.43758770270045 24.166842387638624 19.50440803710528
    vertex 89.53286636691895 24.82220774426636 19.50440803710528
  endloop
endfacet
facet normal 0.0 0.0 -1.0
  outer loop
    vertex 87.43758770270045 24.166842387638624 19.50440803710528
    vertex 89.84814304028096 23.814231841450333 19.50440803710528
    vertex 87.75286437606245 23.1588664848226 19.50440803710528
  endloop
endfacet
facet normal -0.935277654968726 -0.29253797328344844 -0.1991914714625433
  outer loop
    vertex 84.53559580797578 22.152562932699254 36.3650500957281
    vertex 87.43758770270045 24.166842387638624 19.50440803710528
    vertex 87.75286437606245 23.1588664848226 19.50440803710528
  endloop
endfacet
facet normal -0.935277654968726 -0.29253797328344844 -0.1991914714625433
  outer loop
    vertex 87.43758770270045 24.166842387638624 19.50440803710528
    vertex 84.53559580797578 22.152562932699254 36.3650500957281
    vertex 84.22031913461377 23.160538835515283 36.3650500957281
  endloop
endfacet
facet normal 0.0 0.0 -1.0
  outer loop
    vertex 84.53559580797578 22.152562932699254 36.3650500957281
    vertex 84.12179697779742 23.12972288270656 36.3650500957281
    vertex 84.22031913461377 23.160538835515283 36.3650500957281
  endloop
endfacet
facet normal 0.0 0.0 -1.0
  outer loop
    vertex 84.12179697779742 23.12972288270656 36.3650500957281
    vertex 84.53559580797578 22.152562932699254 36.3650500957281
    vertex 84.43707365115942 22.12174697989053 36.3650500957281
  endloop
endfacet
facet normal 0.9511503936032252 0.2975026795029609 -0.08249293567929712
  outer loop
    vertex 84.12179697779742 23.12972288270656 36.3650500957281
    vertex 83.12691254716066 21.711952228564602 19.50440803710528
    vertex 82.81163587379865 22.71992813138063 19.50440803710528
  endloop
endfacet
facet normal 0.9511503936032252 0.2975026795029609 -0.08249293567929712
  outer loop
    vertex 83.12691254716066 21.711952228564602 19.50440803710528
    vertex 84.12179697779742 23.12972288270656 36.3650500957281
    vertex 84.43707365115942 22.12174697989053 36.3650500957281
  endloop
endfacet
facet normal 0.0 0.0 -1.0
  outer loop
    vertex 83.12691254716066 21.711952228564602 19.50440803710528
    vertex 79.66351639714208 21.73525316725347 19.50440803710528
    vertex 82.81163587379865 22.71992813138063 19.50440803710528
  endloop
endfacet
facet normal 0.0 0.0 -1.0
  outer loop
    vertex 79.66351639714208 21.73525316725347 19.50440803710528
    vertex 83.12691254716066 21.711952228564602 19.50440803710528
    vertex 79.97879307050408 20.727277264437443 19.50440803710528
  endloop
endfacet
facet normal -0.9497668346210869 -0.29706992721982595 0.09845007971275616
  outer loop
    vertex 82.42654851935748 21.492890998815643 45.86079819990954
    vertex 79.66351639714208 21.73525316725347 19.50440803710528
    vertex 79.97879307050408 20.727277264437443 19.50440803710528
  endloop
endfacet
facet normal -0.9497668346210869 -0.29706992721982595 0.09845007971275616
  outer loop
    vertex 79.66351639714208 21.73525316725347 19.50440803710528
    vertex 82.42654851935748 21.492890998815643 45.86079819990954
    vertex 82.11127184599547 22.50086690163167 45.86079819990954
  endloop
endfacet
facet normal 0.0 0.0 1.0
  outer loop
    vertex 82.42654851935748 21.492890998815643 45.86079819990954
    vertex 85.02318292183769 23.41166014039133 45.86079819990954
    vertex 82.11127184599547 22.50086690163167 45.86079819990954
  endloop
endfacet
facet normal 0.0 0.0 1.0
  outer loop
    vertex 85.02318292183769 23.41166014039133 45.86079819990954
    vertex 82.42654851935748 21.492890998815643 45.86079819990954
    vertex 85.3384595951997 22.403684237575305 45.86079819990954
  endloop
endfacet
facet normal 0.9358354501826975 0.29271244156090115 0.19629426058039418
  outer loop
    vertex 85.02318292183769 23.41166014039133 45.86079819990954
    vertex 88.81029472996713 23.48961161807398 27.386499600706866
    vertex 88.49501805660512 24.497587520890004 27.386499600706866
  endloop
endfacet
facet normal 0.9358354501826975 0.29271244156090115 0.19629426058039418
  outer loop
    vertex 88.81029472996713 23.48961161807398 27.386499600706866
    vertex 85.02318292183769 23.41166014039133 45.86079819990954
    vertex 85.3384595951997 22.403684237575305 45.86079819990954
  endloop
endfacet
facet normal 0.0 0.0 1.0
  outer loop
    vertex 88.81029472996713 23.48961161807398 27.386499600706866
    vertex 88.57334623096843 24.522087160390107 27.386499600706866
    vertex 88.49501805660512 24.497587520890004 27.386499600706866
  endloop
endfacet
facet normal 0.0 0.0 1.0
  outer loop
    vertex 88.57334623096843 24.522087160390107 27.386499600706866
    vertex 88.81029472996713 23.48961161807398 27.386499600706866
    vertex 88.88862290433043 23.51411125757408 27.386499600706866
  endloop
endfacet
facet normal -0.9349976183265142 -0.29245038287505737 0.20062957728106406
  outer loop
    vertex 92.4403160606167 24.62501678615684 45.86079819990954
    vertex 88.57334623096843 24.522087160390107 27.386499600706866
    vertex 88.88862290433043 23.51411125757408 27.386499600706866
  endloop
endfacet
facet normal -0.9349976183265142 -0.29245038287505737 0.20062957728106406
  outer loop
    vertex 88.57334623096843 24.522087160390107 27.386499600706866
    vertex 92.4403160606167 24.62501678615684 45.86079819990954
    vertex 92.12503938725469 25.63299268897287 45.86079819990954
  endloop
endfacet
facet normal 0.0 0.0 1.0
  outer loop
    vertex 92.4403160606167 24.62501678615684 45.86079819990954
    vertex 95.03542061594138 26.543307419148547 45.86079819990954
    vertex 92.12503938725469 25.63299268897287 45.86079819990954
  endloop
endfacet
facet normal 0.0 0.0 1.0
  outer loop
    vertex 95.03542061594138 26.543307419148547 45.86079819990954
    vertex 92.4403160606167 24.62501678615684 45.86079819990954
    vertex 95.35069728930338 25.53533151633252 45.86079819990954
  endloop
endfacet
facet normal 0.9501278974730584 0.2971828611645027 0.09454800618471797
  outer loop
    vertex 95.03542061594138 26.543307419148547 45.86079819990954
    vertex 97.70054252020265 26.270320701335585 19.50440803710528
    vertex 97.38526584684064 27.278296604151613 19.50440803710528
  endloop
endfacet
facet normal 0.9501278974730584 0.2971828611645027 0.09454800618471797
  outer loop
    vertex 97.70054252020265 26.270320701335585 19.50440803710528
    vertex 95.03542061594138 26.543307419148547 45.86079819990954
    vertex 95.35069728930338 25.53533151633252 45.86079819990954
  endloop
endfacet
facet normal 0.298520140817632 -0.9544033348255972 0.0
  outer loop
    vertex 107.88320518743275 29.455273836348887 19.50440803710528
    vertex 104.51509368981047 28.401789337844484 30.572436873133757
    vertex 104.51509368981047 28.401789337844484 19.50440803710528
  endloop
endfacet
facet normal 0.298520140817632 -0.9544033348255972 0.0
  outer loop
    vertex 104.51509368981047 28.401789337844484 30.572436873133757
    vertex 107.88320518743275 29.455273836348887 19.50440803710528
    vertex 106.2168956656258 28.93408228667093 33.985294596579685
  endloop
endfacet
facet normal 0.298520140817632 -0.9544033348255972 0.0
  outer loop
    vertex 106.2168956656258 28.93408228667093 33.985294596579685
    vertex 107.88320518743275 29.455273836348887 19.50440803710528
    vertex 106.29032832909141 28.957050698702275 34.02052868370373
  endloop
endfacet
facet normal 0.298520140817632 -0.9544033348255972 0.0
  outer loop
    vertex 106.29032832909141 28.957050698702275 34.02052868370373
    vertex 107.88320518743275 29.455273836348887 19.50440803710528
    vertex 107.88320518743275 29.455273836348887 30.737940108065025
  endloop
endfacet
facet normal 0.298520140817632 -0.9544033348255972 0.0
  outer loop
    vertex 106.29032832909141 28.957050698702275 34.02052868370373
    vertex 107.88320518743275 29.455273836348887 30.737940108065025
    vertex 109.4311045394014 29.939428821626297 45.86079819990954
  endloop
endfacet
facet normal 0.298520140817632 -0.9544033348255972 0.0
  outer loop
    vertex 109.4311045394014 29.939428821626297 45.86079819990954
    vertex 107.88320518743275 29.455273836348887 30.737940108065025
    vertex 112.73955199795788 30.974251485355232 45.86079819990954
  endloop
endfacet
facet normal 0.298520140817632 -0.9544033348255972 0.0
  outer loop
    vertex 104.51509368981047 28.401789337844484 30.572436873133757
    vertex 103.11467160363523 27.963762580063356 45.86079819990954
    vertex 99.77623914083031 26.919561148088295 45.86079819990954
  endloop
endfacet
facet normal 0.298520140817632 -0.9544033348255972 0.0
  outer loop
    vertex 103.11467160363523 27.963762580063356 45.86079819990954
    vertex 104.51509368981047 28.401789337844484 30.572436873133757
    vertex 106.2168956656258 28.93408228667093 33.985294596579685
  endloop
endfacet
facet normal 0.9030296905627107 0.28245139193540164 -0.32366431554307784
  outer loop
    vertex 112.42427532459585 31.982227388171253 45.86079819990954
    vertex 107.88320518743275 29.455273836348887 30.737940108065025
    vertex 107.56792851407073 30.463249739164908 30.737940108065025
  endloop
endfacet
facet normal 0.9030296905627107 0.28245139193540164 -0.32366431554307784
  outer loop
    vertex 107.88320518743275 29.455273836348887 30.737940108065025
    vertex 112.42427532459585 31.982227388171253 45.86079819990954
    vertex 112.73955199795788 30.974251485355232 45.86079819990954
  endloop
endfacet
facet normal 0.9544033348255986 0.29852014081762807 0.0
  outer loop
    vertex 107.56792851407073 30.463249739164908 30.737940108065025
    vertex 107.88320518743275 29.455273836348887 19.50440803710528
    vertex 107.56792851407073 30.463249739164908 19.50440803710528
  endloop
endfacet
facet normal 0.9544033348255986 0.29852014081762807 0.0
  outer loop
    vertex 107.88320518743275 29.455273836348887 19.50440803710528
    vertex 107.56792851407073 30.463249739164908 30.737940108065025
    vertex 107.88320518743275 29.455273836348887 30.737940108065025
  endloop
endfacet
facet normal 0.0 0.0 -1.0
  outer loop
    vertex 107.88320518743275 29.455273836348887 19.50440803710528
    vertex 104.19981701644848 29.409765240660512 19.50440803710528
    vertex 107.56792851407073 30.463249739164908 19.50440803710528
  endloop
endfacet
facet normal 0.0 0.0 -1.0
  outer loop
    vertex 104.19981701644848 29.409765240660512 19.50440803710528
    vertex 107.88320518743275 29.455273836348887 19.50440803710528
    vertex 104.51509368981047 28.401789337844484 19.50440803710528
  endloop
endfacet
facet normal -0.9544033348255986 -0.29852014081762807 0.0
  outer loop
    vertex 104.51509368981047 28.401789337844484 30.572436873133757
    vertex 104.19981701644848 29.409765240660512 19.50440803710528
    vertex 104.51509368981047 28.401789337844484 19.50440803710528
  endloop
endfacet
facet normal -0.9544033348255986 -0.29852014081762807 0.0
  outer loop
    vertex 104.19981701644848 29.409765240660512 19.50440803710528
    vertex 104.51509368981047 28.401789337844484 30.572436873133757
    vertex 104.19981701644848 29.409765240660512 30.572436873133757
  endloop
endfacet
facet normal -0.9062780168892486 -0.28346740979392776 -0.31353848836787473
  outer loop
    vertex 99.77623914083031 26.919561148088295 45.86079819990954
    vertex 104.19981701644848 29.409765240660512 30.572436873133757
    vertex 104.51509368981047 28.401789337844484 30.572436873133757
  endloop
endfacet
facet normal -0.9062780168892486 -0.28346740979392776 -0.31353848836787473
  outer loop
    vertex 104.19981701644848 29.409765240660512 30.572436873133757
    vertex 99.77623914083031 26.919561148088295 45.86079819990954
    vertex 99.4609624674683 27.927537050904323 45.86079819990954
  endloop
endfacet
facet normal 0.0 0.0 1.0
  outer loop
    vertex 99.77623914083031 26.919561148088295 45.86079819990954
    vertex 102.79939493027322 28.971738482879385 45.86079819990954
    vertex 99.4609624674683 27.927537050904323 45.86079819990954
  endloop
endfacet
facet normal 0.0 0.0 1.0
  outer loop
    vertex 102.79939493027322 28.971738482879385 45.86079819990954
    vertex 99.77623914083031 26.919561148088295 45.86079819990954
    vertex 103.11467160363523 27.963762580063356 45.86079819990954
  endloop
endfacet
facet normal 0.9194673413516958 0.28759279248293373 0.26808616879561764
  outer loop
    vertex 102.79939493027322 28.971738482879385 45.86079819990954
    vertex 106.2168956656258 28.93408228667093 33.985294596579685
    vertex 105.90161899226379 29.942058189486957 33.985294596579685
  endloop
endfacet
facet normal 0.9194673413516958 0.28759279248293373 0.26808616879561764
  outer loop
    vertex 106.2168956656258 28.93408228667093 33.985294596579685
    vertex 102.79939493027322 28.971738482879385 45.86079819990954
    vertex 103.11467160363523 27.963762580063356 45.86079819990954
  endloop
endfacet
facet normal -0.3919626991942747 -0.12259885929685471 0.911775609533096
  outer loop
    vertex 106.2168956656258 28.93408228667093 33.985294596579685
    vertex 105.97505165572939 29.965026601518304 34.02052868370373
    vertex 105.90161899226379 29.942058189486957 33.985294596579685
  endloop
endfacet
facet normal -0.3919626991942747 -0.12259885929685471 0.911775609533096
  outer loop
    vertex 105.97505165572939 29.965026601518304 34.02052868370373
    vertex 106.2168956656258 28.93408228667093 33.985294596579685
    vertex 106.29032832909141 28.957050698702275 34.02052868370373
  endloop
endfacet
facet normal -0.9184408735901691 -0.2872717318898548 0.2719215213548392
  outer loop
    vertex 109.4311045394014 29.939428821626297 45.86079819990954
    vertex 105.97505165572939 29.965026601518304 34.02052868370373
    vertex 106.29032832909141 28.957050698702275 34.02052868370373
  endloop
endfacet
facet normal -0.9184408735901691 -0.2872717318898548 0.2719215213548392
  outer loop
    vertex 105.97505165572939 29.965026601518304 34.02052868370373
    vertex 109.4311045394014 29.939428821626297 45.86079819990954
    vertex 109.11582786603941 30.947404724442322 45.86079819990954
  endloop
endfacet
facet normal 0.0 0.0 1.0
  outer loop
    vertex 109.4311045394014 29.939428821626297 45.86079819990954
    vertex 112.42427532459585 31.982227388171253 45.86079819990954
    vertex 109.11582786603941 30.947404724442322 45.86079819990954
  endloop
endfacet
facet normal 0.0 0.0 1.0
  outer loop
    vertex 112.42427532459585 31.982227388171253 45.86079819990954
    vertex 109.4311045394014 29.939428821626297 45.86079819990954
    vertex 112.73955199795788 30.974251485355232 45.86079819990954
  endloop
endfacet
endsolid 本體元件
